<?xml version="1.0" encoding="UTF-8"?>
<svg id="_레이어_1" data-name="레이어_1" xmlns="http://www.w3.org/2000/svg" version="1.1" viewBox="0 0 500 500">
  <!-- Generator: Adobe Illustrator 29.0.0, SVG Export Plug-In . SVG Version: 2.1.0 Build 186)  -->
  <defs>
    <style>
      .st0 {
        stroke-width: .3px;
      }

      .st0, .st1, .st2, .st3, .st4 {
        stroke-miterlimit: 10;
      }

      .st0, .st1, .st2, .st3, .st4, .st5 {
        fill: none;
        stroke: #040000;
        stroke-linecap: round;
      }

      .st1, .st5 {
        stroke-width: .5px;
      }

      .st2 {
        stroke-width: 1px;
      }

      .st3, .st4 {
        stroke-width: .2px;
      }

      .st3, .st6 {
        opacity: .5;
      }

      .st5 {
        stroke-linejoin: round;
      }
    </style>
  </defs>
  <line class="st3" x1="184.2" y1="219.5" x2="451.8" y2="146.4"/>
  <g>
    <line class="st0" x1="398.1" y1="78.5" x2="454.4" y2="178.8"/>
    <line class="st0" x1="454.4" y1="293.4" x2="284.4" y2="453.2"/>
    <line class="st0" x1="454.4" y1="287" x2="284.4" y2="423.6"/>
    <line class="st0" x1="45.6" y1="205.1" x2="174" y2="157.2"/>
    <line class="st0" x1="398.1" y1="223.5" x2="159.7" y2="157.2"/>
    <line class="st0" x1="45.6" y1="296.5" x2="183.1" y2="339.2"/>
    <line class="st0" x1="305.9" y1="423.6" x2="45.6" y2="308.7"/>
    <line class="st0" x1="305.9" y1="453.2" x2="45.6" y2="320.9"/>
    <line class="st0" x1="296" y1="206.7" x2="454.4" y2="239.3"/>
    <line class="st0" x1="313" y1="207.8" x2="45.6" y2="243.8"/>
    <line class="st0" x1="45.6" y1="294" x2="320.5" y2="369.1"/>
    <line class="st0" x1="299.8" y1="369.1" x2="454.4" y2="278.2"/>
    <line class="st0" x1="424.2" y1="87.2" x2="45.6" y2="223"/>
    <line class="st0" x1="183.1" y1="252.2" x2="45.6" y2="255"/>
    <line class="st0" x1="159.7" y1="252.2" x2="454.4" y2="257.4"/>
    <line class="st0" x1="166.7" y1="339.2" x2="454.4" y2="266.4"/>
  </g>
  <g class="st6">
    <line class="st4" x1="398.1" y1="75.3" x2="454.4" y2="175.7"/>
    <line class="st4" x1="454.4" y1="290.2" x2="284.4" y2="450"/>
    <line class="st4" x1="454.4" y1="283.8" x2="284.4" y2="420.4"/>
    <line class="st4" x1="45.6" y1="202" x2="174" y2="154"/>
    <line class="st4" x1="398.1" y1="220.3" x2="159.7" y2="154"/>
    <line class="st4" x1="45.6" y1="293.4" x2="183.1" y2="336"/>
    <line class="st4" x1="305.9" y1="420.4" x2="45.6" y2="305.6"/>
    <line class="st4" x1="305.9" y1="450" x2="45.6" y2="317.8"/>
    <line class="st4" x1="296" y1="203.5" x2="454.4" y2="236.2"/>
    <line class="st4" x1="313" y1="204.7" x2="45.6" y2="240.6"/>
    <line class="st4" x1="45.6" y1="290.9" x2="320.5" y2="365.9"/>
    <line class="st4" x1="299.8" y1="365.9" x2="454.4" y2="275"/>
    <line class="st4" x1="424.2" y1="84" x2="45.6" y2="219.9"/>
    <line class="st4" x1="183.1" y1="249.1" x2="45.6" y2="251.8"/>
    <line class="st4" x1="159.7" y1="249.1" x2="454.4" y2="254.2"/>
    <line class="st4" x1="166.7" y1="336" x2="454.4" y2="263.3"/>
  </g>
  <g class="st6">
    <line class="st4" x1="398.1" y1="80.9" x2="454.4" y2="181.2"/>
    <line class="st4" x1="454.4" y1="295.8" x2="284.4" y2="455.6"/>
    <line class="st4" x1="454.4" y1="289.4" x2="284.4" y2="426"/>
    <line class="st4" x1="45.6" y1="207.5" x2="174" y2="159.6"/>
    <line class="st4" x1="398.1" y1="225.9" x2="159.7" y2="159.6"/>
    <line class="st4" x1="45.6" y1="299" x2="183.1" y2="341.6"/>
    <line class="st4" x1="305.9" y1="426" x2="45.6" y2="311.1"/>
    <line class="st4" x1="305.9" y1="455.6" x2="45.6" y2="323.3"/>
    <line class="st4" x1="296" y1="209.1" x2="454.4" y2="241.7"/>
    <line class="st4" x1="313" y1="210.2" x2="45.6" y2="246.2"/>
    <line class="st4" x1="45.6" y1="296.4" x2="320.5" y2="371.5"/>
    <line class="st4" x1="299.8" y1="371.5" x2="454.4" y2="280.6"/>
    <line class="st4" x1="424.2" y1="89.6" x2="45.6" y2="225.4"/>
    <line class="st4" x1="183.1" y1="254.6" x2="45.6" y2="257.4"/>
    <line class="st4" x1="159.7" y1="254.6" x2="454.4" y2="259.8"/>
    <line class="st4" x1="166.7" y1="341.6" x2="454.4" y2="268.8"/>
  </g>
  <g>
    <polygon class="st0" points="50.2 203.7 50.2 323.2 53.9 325.1 53.9 202.3 50.2 203.7"/>
    <polyline class="st0" points="53.9 202.3 58.1 203.2 58.1 323.9 53.9 325.1"/>
  </g>
  <polygon class="st0" points="175.8 336.9 175.8 161.6 184.2 164 184.2 334.7 175.8 336.9"/>
  <polygon class="st0" points="175.8 161.6 167.6 164.1 167.6 334.4 175.8 336.9 175.8 161.6"/>
  <polygon class="st0" points="215.4 221.6 215.4 340.4 221.5 342 221.5 220.8 215.4 221.6"/>
  <polyline class="st0" points="221.5 220.8 227.8 221.7 227.8 339.8 221.5 342"/>
  <polygon class="st0" points="306.4 365.2 306.4 208.8 297.7 209.9 297.7 362.8 306.4 365.2"/>
  <polygon class="st0" points="306.4 208.8 314.2 210.4 314.2 360.5 306.4 365.2 306.4 208.8"/>
  <polygon class="st1" points="406.5 93.5 406.5 338.3 411.2 333.9 411.2 101.9 406.5 93.5"/>
  <polygon class="st1" points="406.5 93.5 399.2 96.1 399.2 337.3 406.5 338.3 406.5 93.5"/>
  <polygon class="st0" points="447.2 166 447.2 300.1 444.3 302.8 444.3 160.9 447.2 166"/>
  <polyline class="st0" points="444.3 160.9 439.9 162.4 439.9 302.8 444.3 302.8"/>
  <g>
    <polygon class="st0" points="271.6 141.9 271.6 319.8 277.9 320.9 277.9 139.7 271.6 141.9"/>
    <polygon class="st0" points="277.9 139.7 284.4 143.1 284.4 317.9 277.9 320.9 277.9 139.7"/>
  </g>
  <line class="st0" x1="412.7" y1="339.2" x2="45.6" y2="288.7"/>
  <polyline class="st1" points="439.9 328.7 379.1 322.5 379.1 223.7"/>
  <line class="st1" x1="371.4" y1="120.8" x2="303.3" y2="143.4"/>
  <line class="st1" x1="307.6" y1="138.7" x2="307.6" y2="208.8"/>
  <polyline class="st1" points="307.6 141.9 321.6 148 368.1 133.5"/>
  <line class="st1" x1="321.6" y1="148" x2="321.6" y2="211.1"/>
  <polyline class="st1" points="326.5 212.9 326.5 151.5 368.1 138.7"/>
  <polyline class="st1" points="326.5 151.5 330 153.5 368.1 141.9"/>
  <line class="st1" x1="330" y1="153.5" x2="330" y2="213.7"/>
  <line class="st1" x1="351.9" y1="143.7" x2="351.9" y2="218.2"/>
  <polyline class="st5" points="355.1 218.8 355.1 142.7 357.7 145.1 357.7 219.4"/>
  <polygon class="st1" points="417.6 144 417.6 208.8 435.7 218 435.7 167.8 417.6 144"/>
  <polyline class="st1" points="435.7 167.8 430.6 167.8 417.6 154.3"/>
  <line class="st1" x1="430.6" y1="167.8" x2="430.6" y2="215.2"/>
  <polyline class="st1" points="428.8 214.5 428.8 168.9 417.6 157.2"/>
  <polyline class="st1" points="428.8 168.9 427.4 168.9 417.6 159.5"/>
  <line class="st1" x1="427.4" y1="168.9" x2="427.4" y2="213.8"/>
  <path class="st1" d="M379.1,322.5"/>
  <polyline class="st1" points="289.5 360.9 289.5 230.3 232.6 236.2 232.6 345.1 247.2 339.2 247.2 234.7"/>
  <line class="st1" x1="247.2" y1="339.2" x2="289.5" y2="350.1"/>
  <polygon class="st1" points="266.2 245.1 251.9 246.3 251.9 272.8 266.2 272.8 266.2 245.1"/>
  <polygon class="st1" points="269.3 245.1 269.3 272.8 286.9 272.8 286.9 243.8 269.3 245.1"/>
  <polygon class="st1" points="251.9 276.2 266.2 276.2 266.2 301.8 251.9 300.8 251.9 276.2"/>
  <polygon class="st1" points="269.3 276.2 269.3 301.8 286.9 302.8 286.9 276.6 269.3 276.2"/>
  <polygon class="st1" points="323.2 230.3 323.2 255.1 372.9 255.9 372.9 236.5 323.2 230.3"/>
  <line class="st1" x1="367.3" y1="255.8" x2="367.3" y2="235.8"/>
  <line class="st1" x1="346.3" y1="233.2" x2="346.3" y2="255.5"/>
  <line class="st1" x1="350.4" y1="233.7" x2="350.4" y2="255.5"/>
  <line class="st1" x1="343.4" y1="233.2" x2="343.4" y2="255.4"/>
  <polygon class="st1" points="417.6 242 417.6 256.7 435.7 257 435.7 244.6 417.6 242"/>
  <line class="st1" x1="432.9" y1="244.2" x2="432.9" y2="257"/>
  <line class="st1" x1="426.7" y1="243.3" x2="426.7" y2="256.9"/>
  <line class="st1" x1="424.2" y1="243.1" x2="424.2" y2="256.8"/>
  <line class="st1" x1="422.7" y1="242.7" x2="422.7" y2="256.8"/>
  <polyline class="st2" points="50.2 200.8 50.2 310.7 292 417.5 406.5 325.3 379.1 322.5 306.4 365.2 306.4 208.8 189.7 224.4 189.7 333.4"/>
  <line class="st2" x1="406.5" y1="87.2" x2="406.5" y2="229.5"/>
  <polyline class="st2" points="167.9 159.4 167.9 252.5 175.8 252.5 175.8 336.9 189.7 333.4 232.6 345.1"/>
  <polyline class="st2" points="88 309.7 58.1 313.9 58.1 255 87.5 254.1 88 309.7 175.8 336.9"/>
  <polyline class="st2" points="50.2 310.7 50.2 323.2 291.9 446.1 291.9 417.5"/>
  <ellipse class="st1" cx="148.2" cy="427.4" rx="25.8" ry="9.9"/>
  <path class="st1" d="M129.8,397.1c0,2.7-5.8,4.9-12.9,4.9s-12.9-2.2-12.9-4.9,5.8-4.9,12.9-4.9,12.9,2.2,12.9,4.9Z"/>
  <ellipse class="st1" cx="417.6" cy="373.3" rx="12.9" ry="4.9"/>
  <path class="st1" d="M407.3,397.1c0,2.7-5.8,4.9-12.9,4.9s-12.9-2.2-12.9-4.9,5.8-4.9,12.9-4.9,12.9,2.2,12.9,4.9Z"/>
  <ellipse class="st1" cx="367.3" cy="427.4" rx="12.9" ry="4.9"/>
  <polyline class="st2" points="291.9 446.1 447.2 300.1 447.2 166 406.5 93.5 271.6 141.9 271.6 188.3 167.9 159.4 50.2 203.7"/>
  <line class="st2" x1="271.6" y1="188.3" x2="271.6" y2="213.4"/>
  <line class="st2" x1="406.5" y1="325.3" x2="406.5" y2="229.5"/>
  <polyline class="st2" points="306.4 208.8 378.6 223.7 379.1 322.5"/>
  <polygon class="st1" points="190.6 181.6 190.6 208.8 263.3 223 263.3 200.3 190.6 181.6"/>
  <polyline class="st1" points="263.3 200.3 257.5 201.8 257.8 221.9"/>
  <line class="st1" x1="257.5" y1="201.8" x2="190.6" y2="185.2"/>
  <polyline class="st1" points="255.5 221.5 255.5 203.1 190.6 187.1"/>
  <polyline class="st1" points="255.5 203.1 253.9 203.1 253.9 221.1"/>
  <line class="st1" x1="240.4" y1="199.4" x2="240.4" y2="218.5"/>
  <line class="st1" x1="238.1" y1="198.8" x2="238.1" y2="217.9"/>
  <line class="st1" x1="236.6" y1="198.8" x2="236.6" y2="217.8"/>
  <line class="st1" x1="215.4" y1="193.5" x2="215.4" y2="213.6"/>
  <line class="st1" x1="212.3" y1="213" x2="212.3" y2="192.4"/>
  <line class="st1" x1="210.5" y1="192" x2="210.5" y2="212.6"/>
  <line class="st2" x1="167.9" y1="252.5" x2="87.5" y2="254.1"/>
  <line class="st1" x1="146.6" y1="186.8" x2="146.6" y2="230.2"/>
  <line class="st1" x1="114.4" y1="198.3" x2="114.4" y2="234.5"/>
  <line class="st1" x1="94.8" y1="205.4" x2="94.8" y2="237.2"/>
  <line class="st1" x1="68.8" y1="214.7" x2="68.8" y2="241.4"/>
  <polyline class="st1" points="68.8 214.7 72.7 215.2 72.7 240.1"/>
  <line class="st1" x1="72.7" y1="215.2" x2="94.8" y2="208.1"/>
  <polyline class="st1" points="114.4 198.3 119.6 199 119.6 233.7"/>
  <line class="st1" x1="119.6" y1="199" x2="146.6" y2="189.7"/>
  <polyline class="st1" points="121.2 233.6 121.2 200 146.6 191.5"/>
  <line class="st1" x1="135.6" y1="195.1" x2="135.6" y2="231.7"/>
  <polyline class="st1" points="137.7 231.4 137.7 194.4 139.2 195.1 139.2 231.2"/>
  <polyline class="st1" points="121.2 200 122.4 200.5 122.4 233.4"/>
  <line class="st1" x1="122.4" y1="200.5" x2="135.6" y2="196.2"/>
  <line class="st1" x1="139.2" y1="195.1" x2="146.6" y2="192.6"/>
  <polyline class="st1" points="74.1 239.9 74.1 216 94.8 209.8"/>
  <line class="st1" x1="84.4" y1="212.9" x2="84.4" y2="238.5"/>
  <polyline class="st1" points="85.8 238.4 85.8 212.5 86.8 212.9 86.8 238.2"/>
  <polyline class="st1" points="74.1 216 75 216.4 75 239.8"/>
  <line class="st1" x1="75" y1="216.4" x2="84.4" y2="213.6"/>
  <line class="st1" x1="86.8" y1="212.9" x2="94.8" y2="210.6"/>
  <line class="st4" x1="53.9" y1="168.9" x2="53.9" y2="363"/>
  <line class="st4" x1="167.6" y1="132.7" x2="167.6" y2="422.1"/>
  <line class="st4" x1="175.8" y1="135.8" x2="175.8" y2="430.5"/>
  <line class="st4" x1="271.2" y1="129.8" x2="271.2" y2="458.3"/>
  <line class="st4" x1="406.5" y1="71.9" x2="406.5" y2="368.6"/>
  <line class="st4" x1="221.5" y1="109.7" x2="221.5" y2="356.4"/>
  <line class="st4" x1="447.2" y1="138.2" x2="447.2" y2="329.5"/>
  <line class="st4" x1="306.6" y1="185.7" x2="306.6" y2="377.1"/>
  <line class="st4" x1="45.6" y1="191.5" x2="422.7" y2="41.7"/>
  <line class="st4" x1="454.4" y1="160.9" x2="385.8" y2="41.7"/>
  <line class="st1" x1="368.1" y1="118.9" x2="368.1" y2="221.3"/>
  <polygon class="st1" points="95.5 259.8 167.6 259.8 167.6 305.6 95.5 295.5 95.5 259.8"/>
  <polyline class="st1" points="100.1 259.8 100.1 294.8 95.5 295.5"/>
  <line class="st1" x1="100.1" y1="294.8" x2="167.6" y2="303.7"/>
  <polyline class="st1" points="102.3 259.8 102.3 293.4 167.6 301"/>
  <line class="st1" x1="131.6" y1="259.8" x2="131.6" y2="296.8"/>
  <line class="st1" x1="137" y1="297.2" x2="137" y2="259.8"/>
  <line class="st1" x1="135" y1="259.8" x2="135" y2="297.2"/>
  <polyline class="st1" points="102.3 293.4 103.9 293.4 103.9 259.8"/>
</svg>