<?xml version="1.0" encoding="UTF-8"?>
<svg id="_레이어_1" data-name="레이어 1" xmlns="http://www.w3.org/2000/svg" viewBox="0 0 500 500">
  <defs>
    <style>
      .cls-1 {
        stroke-width: .26px;
      }

      .cls-1, .cls-2, .cls-3, .cls-4, .cls-5 {
        stroke-miterlimit: 10;
      }

      .cls-1, .cls-2, .cls-3, .cls-4, .cls-5, .cls-6 {
        fill: none;
        stroke: #040000;
        stroke-linecap: round;
      }

      .cls-2, .cls-6 {
        stroke-width: .51px;
      }

      .cls-3 {
        stroke-width: 1.03px;
      }

      .cls-4, .cls-5 {
        stroke-width: .15px;
      }

      .cls-4, .cls-7 {
        opacity: .5;
      }

      .cls-6 {
        stroke-linejoin: round;
      }
    </style>
  </defs>
  <line class="cls-4" x1="171.03" y1="213.42" x2="492.23" y2="125.66"/>
  <g>
    <line class="cls-1" x1="427.73" y1="44.14" x2="495.25" y2="164.56"/>
    <line class="cls-1" x1="495.25" y1="302.03" x2="291.29" y2="493.8"/>
    <line class="cls-1" x1="495.25" y1="294.38" x2="291.29" y2="458.3"/>
    <line class="cls-1" x1="4.75" y1="196.12" x2="158.82" y2="138.58"/>
    <line class="cls-1" x1="427.73" y1="218.16" x2="141.65" y2="138.58"/>
    <line class="cls-1" x1="4.75" y1="305.86" x2="169.69" y2="357.02"/>
    <line class="cls-1" x1="317.04" y1="458.3" x2="4.75" y2="320.48"/>
    <line class="cls-1" x1="317.04" y1="493.8" x2="4.75" y2="335.1"/>
    <line class="cls-1" x1="305.23" y1="197.99" x2="495.25" y2="237.19"/>
    <line class="cls-1" x1="325.64" y1="199.36" x2="4.75" y2="242.52"/>
    <line class="cls-1" x1="4.75" y1="302.85" x2="334.62" y2="392.87"/>
    <line class="cls-1" x1="309.75" y1="392.87" x2="495.25" y2="283.82"/>
    <line class="cls-1" x1="459.05" y1="54.58" x2="4.75" y2="217.59"/>
    <line class="cls-1" x1="169.69" y1="252.65" x2="4.75" y2="255.98"/>
    <line class="cls-1" x1="141.65" y1="252.65" x2="495.25" y2="258.83"/>
    <line class="cls-1" x1="150" y1="357.02" x2="495.25" y2="269.67"/>
  </g>
  <g class="cls-7">
    <line class="cls-5" x1="427.73" y1="40.38" x2="495.25" y2="160.8"/>
    <line class="cls-5" x1="495.25" y1="298.27" x2="291.29" y2="490.04"/>
    <line class="cls-5" x1="495.25" y1="290.61" x2="291.29" y2="454.54"/>
    <line class="cls-5" x1="4.75" y1="192.35" x2="158.82" y2="134.81"/>
    <line class="cls-5" x1="427.73" y1="214.4" x2="141.65" y2="134.81"/>
    <line class="cls-5" x1="4.75" y1="302.1" x2="169.69" y2="353.26"/>
    <line class="cls-5" x1="317.04" y1="454.54" x2="4.75" y2="316.72"/>
    <line class="cls-5" x1="317.04" y1="490.04" x2="4.75" y2="331.33"/>
    <line class="cls-5" x1="305.23" y1="194.22" x2="495.25" y2="233.43"/>
    <line class="cls-5" x1="325.64" y1="195.6" x2="4.75" y2="238.76"/>
    <line class="cls-5" x1="4.75" y1="299.08" x2="334.62" y2="389.11"/>
    <line class="cls-5" x1="309.75" y1="389.11" x2="495.25" y2="280.06"/>
    <line class="cls-5" x1="459.05" y1="50.82" x2="4.75" y2="213.83"/>
    <line class="cls-5" x1="169.69" y1="248.89" x2="4.75" y2="252.21"/>
    <line class="cls-5" x1="141.65" y1="248.89" x2="495.25" y2="255.07"/>
    <line class="cls-5" x1="150" y1="353.26" x2="495.25" y2="265.9"/>
  </g>
  <g class="cls-7">
    <line class="cls-5" x1="427.73" y1="47.03" x2="495.25" y2="167.44"/>
    <line class="cls-5" x1="495.25" y1="304.92" x2="291.29" y2="496.68"/>
    <line class="cls-5" x1="495.25" y1="297.26" x2="291.29" y2="461.18"/>
    <line class="cls-5" x1="4.75" y1="199" x2="158.82" y2="141.46"/>
    <line class="cls-5" x1="427.73" y1="221.04" x2="141.65" y2="141.46"/>
    <line class="cls-5" x1="4.75" y1="308.75" x2="169.69" y2="359.91"/>
    <line class="cls-5" x1="317.04" y1="461.18" x2="4.75" y2="323.36"/>
    <line class="cls-5" x1="317.04" y1="496.68" x2="4.75" y2="337.98"/>
    <line class="cls-5" x1="305.23" y1="200.87" x2="495.25" y2="240.08"/>
    <line class="cls-5" x1="325.64" y1="202.25" x2="4.75" y2="245.4"/>
    <line class="cls-5" x1="4.75" y1="305.73" x2="334.62" y2="395.75"/>
    <line class="cls-5" x1="309.75" y1="395.75" x2="495.25" y2="286.7"/>
    <line class="cls-5" x1="459.05" y1="57.47" x2="4.75" y2="220.47"/>
    <line class="cls-5" x1="169.69" y1="255.53" x2="4.75" y2="258.86"/>
    <line class="cls-5" x1="141.65" y1="255.53" x2="495.25" y2="261.71"/>
    <line class="cls-5" x1="150" y1="359.91" x2="495.25" y2="272.55"/>
  </g>
  <g>
    <polygon class="cls-1" points="10.17 194.44 10.17 337.87 14.71 340.14 14.71 192.74 10.17 194.44"/>
    <polyline class="cls-1" points="14.71 192.74 19.65 193.8 19.65 338.66 14.71 340.14"/>
  </g>
  <polygon class="cls-1" points="160.9 354.27 160.9 143.93 171.03 146.75 171.03 351.7 160.9 354.27"/>
  <polygon class="cls-1" points="160.9 143.93 151.16 146.93 151.16 351.26 160.9 354.27 160.9 143.93"/>
  <polygon class="cls-1" points="208.47 215.87 208.47 358.44 215.83 360.45 215.83 214.91 208.47 215.87"/>
  <polyline class="cls-1" points="215.83 214.91 223.32 216.07 223.32 357.75 215.83 360.45"/>
  <polygon class="cls-1" points="317.63 388.23 317.63 200.52 307.2 201.84 307.2 385.39 317.63 388.23"/>
  <polygon class="cls-1" points="317.63 200.52 327.1 202.5 327.1 382.67 317.63 388.23 317.63 200.52"/>
  <polygon class="cls-2" points="437.85 62.19 437.85 356 443.5 350.68 443.5 72.28 437.85 62.19"/>
  <polygon class="cls-2" points="437.85 62.19 429.01 65.36 429.01 354.79 437.85 356 437.85 62.19"/>
  <polygon class="cls-1" points="486.61 149.15 486.61 310.16 483.22 313.35 483.22 143.11 486.61 149.15"/>
  <polyline class="cls-1" points="483.22 143.11 477.9 144.9 477.9 313.35 483.22 313.35"/>
  <g>
    <polygon class="cls-1" points="275.86 120.31 275.86 333.71 283.5 335.1 283.5 117.57 275.86 120.31"/>
    <polygon class="cls-1" points="283.5 117.57 291.29 121.75 291.29 331.44 283.5 335.1 283.5 117.57"/>
  </g>
  <line class="cls-1" x1="445.27" y1="357.02" x2="4.75" y2="296.4"/>
  <polyline class="cls-2" points="477.9 344.49 404.88 336.95 404.88 218.44"/>
  <line class="cls-2" x1="395.73" y1="94.89" x2="314.02" y2="122.03"/>
  <line class="cls-2" x1="319.16" y1="116.47" x2="319.16" y2="200.52"/>
  <polyline class="cls-2" points="319.16 120.32 335.87 127.61 391.79 110.2"/>
  <line class="cls-2" x1="335.87" y1="127.61" x2="335.87" y2="203.34"/>
  <polyline class="cls-2" points="341.79 205.51 341.79 131.78 391.79 116.47"/>
  <polyline class="cls-2" points="341.79 131.78 345.96 134.22 391.79 120.3"/>
  <line class="cls-2" x1="345.96" y1="134.22" x2="345.96" y2="206.39"/>
  <line class="cls-2" x1="372.32" y1="122.43" x2="372.32" y2="211.82"/>
  <polyline class="cls-6" points="376.14 212.6 376.14 121.26 379.24 124.11 379.24 213.25"/>
  <polygon class="cls-2" points="451.16 122.8 451.16 200.52 472.86 211.55 472.86 151.34 451.16 122.8"/>
  <polyline class="cls-2" points="472.86 151.34 466.71 151.34 451.16 135.09"/>
  <line class="cls-2" x1="466.71" y1="151.34" x2="466.71" y2="208.23"/>
  <polyline class="cls-2" points="464.62 207.36 464.62 152.73 451.16 138.58"/>
  <polyline class="cls-2" points="464.62 152.73 462.94 152.73 451.16 141.42"/>
  <line class="cls-2" x1="462.94" y1="152.73" x2="462.94" y2="206.5"/>
  <polyline class="cls-2" points="297.45 383.13 297.45 226.33 229.1 233.47 229.1 364.07 246.63 357.02 246.63 231.64"/>
  <line class="cls-2" x1="246.63" y1="357.02" x2="297.45" y2="370.13"/>
  <polygon class="cls-2" points="269.49 244.14 252.32 245.54 252.32 277.38 269.49 277.38 269.49 244.14"/>
  <polygon class="cls-2" points="273.2 244.14 273.2 277.38 294.32 277.38 294.32 242.52 273.2 244.14"/>
  <polygon class="cls-2" points="252.32 281.5 269.49 281.5 269.49 312.13 252.32 310.97 252.32 281.5"/>
  <polygon class="cls-2" points="273.2 281.5 273.2 312.13 294.32 313.35 294.32 281.96 273.2 281.5"/>
  <polygon class="cls-2" points="337.82 226.33 337.82 256.08 397.47 257.12 397.47 233.82 337.82 226.33"/>
  <line class="cls-2" x1="390.78" y1="257.01" x2="390.78" y2="232.98"/>
  <line class="cls-2" x1="365.57" y1="229.82" x2="365.57" y2="256.56"/>
  <line class="cls-2" x1="370.45" y1="230.43" x2="370.45" y2="256.56"/>
  <line class="cls-2" x1="362.07" y1="229.82" x2="362.07" y2="256.52"/>
  <polygon class="cls-2" points="451.16 240.43 451.16 258.06 472.86 258.44 472.86 243.5 451.16 240.43"/>
  <line class="cls-2" x1="469.53" y1="243.03" x2="469.53" y2="258.38"/>
  <line class="cls-2" x1="462.01" y1="241.96" x2="462.01" y2="258.25"/>
  <line class="cls-2" x1="459.05" y1="241.73" x2="459.05" y2="258.2"/>
  <line class="cls-2" x1="457.2" y1="241.28" x2="457.2" y2="258.17"/>
  <polyline class="cls-3" points="10.17 191.01 10.17 322.87 300.42 450.96 437.85 340.35 404.88 336.95 317.63 388.23 317.63 200.52 177.64 219.27 177.64 350.03"/>
  <line class="cls-3" x1="437.85" y1="54.58" x2="437.85" y2="225.35"/>
  <polyline class="cls-3" points="151.49 141.31 151.49 253.02 160.9 253.02 160.9 354.27 177.64 350.03 229.1 364.07"/>
  <polyline class="cls-3" points="55.64 321.64 19.65 326.71 19.65 255.98 54.95 254.97 55.64 321.64 160.9 354.27"/>
  <polyline class="cls-3" points="10.17 322.87 10.17 337.87 300.33 485.3 300.33 450.96"/>
  <ellipse class="cls-2" cx="127.84" cy="462.84" rx="30.97" ry="11.87"/>
  <path class="cls-2" d="M105.76,426.52c0,3.28-6.93,5.94-15.49,5.94s-15.49-2.66-15.49-5.94,6.93-5.94,15.49-5.94,15.49,2.66,15.49,5.94Z"/>
  <ellipse class="cls-2" cx="451.16" cy="397.92" rx="15.49" ry="5.94"/>
  <path class="cls-2" d="M438.73,426.52c0,3.28-6.93,5.94-15.49,5.94s-15.49-2.66-15.49-5.94,6.93-5.94,15.49-5.94,15.49,2.66,15.49,5.94Z"/>
  <ellipse class="cls-2" cx="390.78" cy="462.84" rx="15.49" ry="5.94"/>
  <polyline class="cls-3" points="300.33 485.3 486.61 310.16 486.61 149.15 437.85 62.19 275.86 120.31 275.86 175.91 151.49 141.31 10.17 194.44"/>
  <line class="cls-3" x1="275.86" y1="175.91" x2="275.86" y2="206.08"/>
  <line class="cls-3" x1="437.85" y1="340.35" x2="437.85" y2="225.35"/>
  <polyline class="cls-3" points="317.63 200.52 404.38 218.44 404.88 336.95"/>
  <polygon class="cls-2" points="178.77 167.96 178.77 200.52 266.01 217.59 266.01 190.39 178.77 167.96"/>
  <polyline class="cls-2" points="266.01 190.39 258.97 192.17 259.33 216.28"/>
  <line class="cls-2" x1="258.97" y1="192.17" x2="178.77" y2="172.22"/>
  <polyline class="cls-2" points="256.56 215.74 256.56 193.68 178.77 174.54"/>
  <polyline class="cls-2" points="256.56 193.68 254.64 193.68 254.64 215.37"/>
  <line class="cls-2" x1="238.44" y1="189.22" x2="238.44" y2="212.2"/>
  <line class="cls-2" x1="235.74" y1="188.56" x2="235.74" y2="211.46"/>
  <line class="cls-2" x1="233.87" y1="188.56" x2="233.87" y2="211.38"/>
  <line class="cls-2" x1="208.47" y1="182.19" x2="208.47" y2="206.33"/>
  <line class="cls-2" x1="204.75" y1="205.6" x2="204.75" y2="180.93"/>
  <line class="cls-2" x1="202.57" y1="180.39" x2="202.57" y2="205.09"/>
  <line class="cls-3" x1="151.49" y1="253.02" x2="54.95" y2="254.97"/>
  <line class="cls-2" x1="125.87" y1="174.13" x2="125.87" y2="226.23"/>
  <line class="cls-2" x1="87.22" y1="188" x2="87.22" y2="231.43"/>
  <line class="cls-2" x1="63.76" y1="196.42" x2="63.76" y2="234.58"/>
  <line class="cls-2" x1="32.6" y1="207.6" x2="32.6" y2="239.74"/>
  <polyline class="cls-2" points="32.6 207.6 37.24 208.24 37.24 238.15"/>
  <line class="cls-2" x1="37.24" y1="208.24" x2="63.76" y2="199.71"/>
  <polyline class="cls-2" points="87.22 188 93.5 188.75 93.5 230.46"/>
  <line class="cls-2" x1="93.5" y1="188.75" x2="125.87" y2="177.61"/>
  <polyline class="cls-2" points="95.47 230.32 95.47 189.97 125.87 179.76"/>
  <line class="cls-2" x1="112.76" y1="184.16" x2="112.76" y2="228"/>
  <polyline class="cls-2" points="115.26 227.66 115.26 183.32 117.05 184.16 117.05 227.42"/>
  <polyline class="cls-2" points="95.47 189.97 96.87 190.55 96.87 230.13"/>
  <line class="cls-2" x1="96.87" y1="190.55" x2="112.76" y2="185.44"/>
  <line class="cls-2" x1="117.05" y1="184.16" x2="125.87" y2="181.15"/>
  <polyline class="cls-2" points="38.88 237.93 38.88 209.23 63.76 201.8"/>
  <line class="cls-2" x1="51.32" y1="205.51" x2="51.32" y2="236.26"/>
  <polyline class="cls-2" points="52.97 236.04 52.97 205.02 54.17 205.51 54.17 235.87"/>
  <polyline class="cls-2" points="38.88 209.23 39.99 209.63 39.99 237.78"/>
  <line class="cls-2" x1="39.99" y1="209.63" x2="51.32" y2="206.33"/>
  <line class="cls-2" x1="54.17" y1="205.51" x2="63.76" y2="202.67"/>
  <line class="cls-5" x1="14.71" y1="152.73" x2="14.71" y2="385.63"/>
  <line class="cls-5" x1="151.16" y1="109.17" x2="151.16" y2="456.56"/>
  <line class="cls-5" x1="160.9" y1="113.01" x2="160.9" y2="466.65"/>
  <line class="cls-5" x1="275.45" y1="105.69" x2="275.45" y2="500"/>
  <line class="cls-5" x1="437.85" y1="36.28" x2="437.85" y2="392.27"/>
  <line class="cls-5" x1="215.83" y1="81.63" x2="215.83" y2="377.71"/>
  <line class="cls-5" x1="486.61" y1="115.84" x2="486.61" y2="345.44"/>
  <line class="cls-5" x1="317.97" y1="172.88" x2="317.97" y2="402.48"/>
  <line class="cls-5" x1="4.75" y1="179.78" x2="457.2"/>
  <line class="cls-5" x1="495.25" y1="143.11" x2="412.99"/>
  <line class="cls-2" x1="391.79" y1="92.63" x2="391.79" y2="215.55"/>
  <polygon class="cls-2" points="64.61 261.71 151.16 261.71 151.16 316.72 64.61 304.64 64.61 261.71"/>
  <polyline class="cls-2" points="70.1 261.71 70.1 303.77 64.61 304.64"/>
  <line class="cls-2" x1="70.1" y1="303.77" x2="151.16" y2="314.45"/>
  <polyline class="cls-2" points="72.73 261.71 72.73 302.1 151.16 311.26"/>
  <line class="cls-2" x1="107.89" y1="261.71" x2="107.89" y2="306.2"/>
  <line class="cls-2" x1="114.38" y1="306.68" x2="114.38" y2="261.71"/>
  <line class="cls-2" x1="111.95" y1="261.71" x2="111.95" y2="306.68"/>
  <polyline class="cls-2" points="72.73 302.1 74.71 302.1 74.71 261.71"/>
</svg>