<?xml version="1.0" encoding="UTF-8"?>
<svg id="_레이어_1" data-name="레이어_1" xmlns="http://www.w3.org/2000/svg" viewBox="0 0 401.2 347.8">
  <defs>
    <style>
      .cls-1 {
        opacity: .45;
      }
    </style>
  </defs>
  <path d="M164.97,280.07l.14,19.18-.08-.12c.45.2,1,.29,1.48.17.49-.1.89-.45,1.18-.87l-.03.09-.14-18.99h.61l-.14,18.99c-.52,1.11-2.04,1.41-3.09.86-.09-.04-.08-.02-.08-.12,0,0,.14-19.18.14-19.18h0Z"/>
  <g>
    <path d="M161.15,263.95l3.96,16.09-.3.03-.15-16.99h.61l-.15,16.99c0,.17-.26.21-.3.03,0,0-3.67-16.16-3.67-16.16h0Z"/>
    <path d="M164.97,263.08l.17,16.99-.19-.17c29.96-4.26,59.94-8.33,89.97-12.04-29.93,4.43-59.91,8.5-89.92,12.38,0,0-.2.03-.2.03,0,0,0-.19,0-.19l.17-16.99h0Z"/>
  </g>
  <path d="M269.47,229.91c-21.79-2.48-65.57-7.58-87.34-10.16.12-.02-32.04.07-32.03.05,0,0,.28-.32.28-.32l4.1,35.34c29.16-3.65,79.27-7.84,109.43-10.96-13.68,1.44-41.15,4.3-54.83,5.68,0,0-54.84,5.58-54.84,5.58-.15.01-.28-.09-.29-.24l-4.12-35.34c-.02-.17.11-.32.28-.32.02,0,32.06.05,32.08.05,21.75,2.61,65.55,7.93,87.29,10.62h0Z"/>
  <path d="M312.51,239.01c4.02-.57,9.54-1.22,13.57-1.64,0,0,4.53-.47,4.53-.47v.59c-5.57-.69-11.13-1.4-16.67-2.28,5.59.44,11.16,1.05,16.73,1.69.16.02.28.17.26.33-.02.14-.13.25-.27.26l-4.54.43c-4.04.39-9.58.84-13.63,1.09h0Z"/>
  <path d="M150.11,219.52s.04,3.44.04,3.42c1.38,12.09,3.13,29.55,4.37,41.83,0,0-.6.03-.6.03,0,0,.02-10.05.03-9.91-1.38-11.79-2.45-23.51-3.83-35.37h0ZM150.11,219.52c1.36,11.71,3.04,23.56,4.39,35.34,0,0,.02,9.94.02,9.94l-.6.03c-1.18-12.35-2.85-29.69-3.85-41.88,0,0,.04-3.42.04-3.43h0Z"/>
  <path d="M263.91,243.88c-13.68,1.46-41.15,4.31-54.83,5.69.19-.23-56.11,6.18-54.57,5.3,0,0,0,9.94,0,9.94,0,0-.33-.29-.33-.29l53.32-6.49c13.27-1.63,40.05-4.84,53.33-6.4-13.29,1.73-39.99,5.13-53.28,6.78,0,0-53.3,6.69-53.3,6.69,0,0-.33.04-.33.04,0,0,0-.33,0-.33,0,0,0-9.94,0-9.94v-.27c31.2-3.05,79.13-7.84,109.99-10.72h0Z"/>
  <polygon points="309.96 245.24 330.63 242.83 330.48 242.99 330.52 237.19 330.66 237.32 312.51 239.01 330.63 237.07 330.77 237.06 330.77 237.19 330.81 242.99 330.81 243.13 330.67 243.15 310.03 245.85 309.96 245.24 309.96 245.24"/>
  <path d="M254.55,311.04c10.44-4.25,31.52-12.62,42.01-16.75,0,0-.24.16-.24.16,1.85-2.07,3.1-4.63,3.91-7.32,2.22-8.3,2.12-17.16,1.61-25.69,6.15-12.06,11.38-24.59,15.42-37.51,0,0,.06-.21.06-.21,1.22-.21,2.1-1.69,1.7-2.88,0,0,.32.23.32.23l-23.1-.13-11.55.02c-3.75.02-7.7-.59-11.3.64-.67.3-.74,1.42-1.1,2.31-1.96,4.94-5.4,13.76-7.37,18.84,0,0-4.19,10.76-4.19,10.76-2.75,7.12-5.96,14.15-6.07,21.89-.36,7.68.8,15.59-1.38,23.17-3.58,13.8-16.38,18.32-28.34,10.94-6.75-4.22-11.02-11.1-15.12-17.65,0,0,.91.25.91.25-.65.32-1.32.45-1.99.49-2.41.2-4.51-1.67-3.37-4.2,1.29-2.63,4.4-2.51,6.65-3.22,0,0,20.34-3.92,20.34-3.92l20.36-3.83s.03.16.03.16l-20.24,4.43-20.26,4.35c-1.62.61-4.81.6-5.7,2.57-1,2.65,2.57,2.73,4.1,1.66,4.18,6.51,8.51,13.38,15.14,17.54,11.11,6.73,22.44,2.77,25.86-10.02,2.16-7.37,1.06-15.15,1.48-22.78.14-7.87,3.54-15.15,6.44-22.28,0,0,4.36-10.7,4.36-10.7,2.43-5.99,6.1-14.87,8.46-20.79.46-.7,1.43-.87,2.15-1,3.35-.61,6.79-.22,10.15-.18,0,0,11.55.05,11.55.05,0,0,23.1-.06,23.1-.06,0,0,.25,0,.25,0,.66,1.57-.2,3.5-1.86,4.02,0,0,.26-.26.26-.26-1.89,6.49-4.07,12.91-6.53,19.22-2.44,6.32-5.23,12.49-8.28,18.54,0,0,.07-.38.07-.38.24,2.89.36,5.79.31,8.7-.17,5.82-.42,11.66-2.1,17.29-.89,2.76-2.3,5.92-4.48,7.92-10.5,3.8-32.1,12.32-42.45,15.59h0Z"/>
  <path d="M192.06,220.7l.92-7.44.02-.19h.19s8.39.11,8.39.11h.12s-.02.12-.02.12c-.43,2.79-.66,5.62-.84,8.44.11-2.83.27-5.66.63-8.47l.1.12-8.39.1.21-.19-.73,7.46-.6-.07h0Z"/>
  <path d="M203.28,222.06c.26-2.98.34-6.03,1.42-8.86.06-.13.02-.12.18-.12,0,0,10.14-.31,10.14-.31h.16s-.06.15-.06.15c-1.21,3.28-1.52,6.88-1.32,10.37-.27-3.51-.03-7.1,1.12-10.45,0,0,.1.15.1.15l-10.13.51s.18-.12.18-.12c-.54,1.33-.7,2.85-.88,4.28-.16,1.47-.26,2.95-.32,4.42l-.61-.03h0Z"/>
  <path d="M217.67,223.78c.11-2.83.33-5.66,1-8.42.27-.93.55-1.91,1.27-2.69,0,0,.09,0,.09,0l13.15-.37h.14s-.03.13-.03.13c-.88,4.27-1.65,8.61-1.69,12.98-.03-4.38.68-8.73,1.49-13.03,0,0,.11.13.11.13l-13.15.59.14-.06c-1.09,1.41-1.26,3.45-1.54,5.19-.22,1.85-.34,3.72-.37,5.57h-.61Z"/>
  <path d="M238.82,226.3c.26-4.71.26-9.67,2.33-14.01,0,0,.06-.1.06-.1,0,0,.12,0,.12,0l17.12-.23h.16c-1.9,5.22-2.3,10.88-2.28,16.4-.09-5.49.25-11.1,2.03-16.33,0,0,.1.14.1.14l-17.12.45s.18-.11.18-.11c-1.95,4.25-1.89,9.2-2.09,13.8,0,0-.61,0-.61,0h0Z"/>
  <path d="M267.77,229.71c.26-5.99.86-12.05,2.81-17.75,0-.02,29.35-.76,29.38-.77,0,0,.34,0,.34,0-.91,3.15-1.64,6.35-2.22,9.58,0,0-.6-.11-.6-.11.59-3.13,1.33-6.23,2.24-9.28l.25.33-29.32.46c-1.68,5.2-2.67,11.73-2.88,17.56h0Z"/>
  <polygon points="328.49 267.92 328.19 286.37 327.89 267.92 328.49 267.92 328.49 267.92"/>
  <polygon points="331.63 267.88 331.33 283.77 331.03 267.88 331.63 267.88 331.63 267.88"/>
  <g>
    <path d="M202.06,238.74c11.83-.99,28.39-2.84,40.1-3.2,0,0,0,.06,0,.06-11.51,1.44-28.48,2.43-40.1,3.14h0Z"/>
    <path d="M239.14,235.78c5.94,1.93,14.44,4.17,20.09,6.66-3.35-.59-6.83-1.93-10.13-3.07.02-.05-10.13-3.48-9.96-3.59h0Z"/>
    <path d="M199.48,240.34c4.66,2.37,9.87,4.26,14.06,7.25-4.88-1.91-9.62-4.71-14.06-7.25h0Z"/>
    <path d="M210.65,247.83c13.86-1.45,33.25-3.97,46.97-4.79,0,0,0,.06,0,.06-13.49,1.89-33.33,3.55-46.97,4.73h0Z"/>
    <path d="M222.12,237.14c4.98,2.3,12.51,4.96,16.99,7.85-2.97-1-5.8-2.31-8.6-3.7.02-.04-8.58-4.05-8.4-4.14h0Z"/>
  </g>
  <path d="M124.6,215.06c0-.2.1-34.29.11-34.46.26-.06,20.91.11,21.16.06,0,0,.13,0,.13,0,0,0,0,.13,0,.13,0,0-.13,43.79-.13,43.79l-.13-43.79c.84.35-21.01.09-20.83.2,0,0,.2-.2.2-.2l.1,34.26h-.61Z"/>
  <polygon points="126.99 189.75 144.17 189.55 144.17 189.96 126.99 189.75 126.99 189.75"/>
  <path d="M145.84,180.8l2-7.14.16-.57v.59c0,18.1.58,43.82-.11,61.55-.51-17.78-.12-43.5-.05-61.55,0,0,.16.02.16.02l-2.1,7.11-.06-.02h0Z"/>
  <path d="M147.92,173.65c18.3.31,37.34,1.87,55.68,2.39,0,0,.21,0,.21,0,.07,6.31.11,12.62.09,18.94-.07-.38.65,2.44.63,2.36,0,0,.04.15.04.15l-.09.12s-.65.84-.65.84l.06-.19c-.05,7.49-.12,14.98-.28,22.47-.34-7.33-.23-15.02-.34-22.47,0-.11,0-.11.06-.19,0,0,.65-.85.65-.85,0,0-.05.27-.05.27l-.65-2.44v-.04c-.02-6.25,0-12.51.08-18.76,0,0,.21.22.21.22-18.28-1.23-37.57-1.29-55.66-2.83h0Z"/>
  <path d="M151.55,193.48c.14.03,23.57.34,23.69.36,0,0,0,.11,0,.11,0,0,.05,16.35.05,16.35,0,0,0,.16,0,.16h-.16s-11.78.04-11.78.04c-3.99,0-7.97.02-11.96-.02,0,0,0-.18,0-.18l.16-16.82h0ZM151.58,193.51l.16,16.79-.18-.18c3.93-.04,7.85-.02,11.78-.02l11.78.04-.16.16.05-16.35.11.11-23.54-.55h0Z"/>
  <path d="M152.65,194.67c6.9.03,14.25.11,21.2.35,0,0,.12,0,.12,0v.12s-.06,7.03-.06,7.03l.05,7.03s0,.11,0,.11h-.11c-7.13.08-14.26.13-21.39.09,0,0,0-.2,0-.2l.19-14.53h0ZM152.68,194.7l.19,14.51s-.2-.2-.2-.2c7.06-.03,14.12.01,21.19.09,0,0-.11.11-.11.11,0,0,.05-7.03.05-7.03l-.06-7.03.12.12c-7-.06-14.15-.31-21.17-.57h0Z"/>
  <polygon points="178.63 175.09 178.32 219.52 178.02 175.09 178.63 175.09 178.63 175.09"/>
  <polygon points="191.96 175.71 191.65 220.57 191.35 175.71 191.96 175.71 191.96 175.71"/>
  <polygon points="193.06 175.71 192.75 216.11 192.45 175.71 193.06 175.71 193.06 175.71"/>
  <path d="M157.61,219.54c-.16-2.08-.24-4.36-1.16-6.25.01-.14,0-.5,0-.64,0,0,.22,0,.22,0l11.94.14c.89,1.97,1.22,4.43,1.03,6.63.27-2.14-.51-4.76-1.03-6.47,0,0-11.94.14-11.94.14,0,0,.22-.22.22-.22v.41s-.04-.13-.04-.13c1.05,1.95,1.1,4.2,1.35,6.35,0,0-.61.03-.61.03h0Z"/>
  <path d="M119.8,215.56l.13-19.65.09.15-4.04-2.44.22-.13-.15,22.7-.15-22.7s0-.26,0-.26c0,0,.22.13.22.13l4.08,2.39s.09.05.09.05c0,.07.12,19.67.13,19.76,0,0-.61,0-.61,0h0Z"/>
  <path d="M118.6,195.02l.99-1.54c-.02.13-.16-26.98-.17-26.95.11.35-3.63-8.9-3.61-8.83,0,0,.48-.09.48-.09.05,5.98.07,11.96.05,17.95-.13,5.24,0,12.89-.33,17.95-.29-12.22-.32-24.97-.21-37.18.16.41,3.77,9.47,4.02,10.21,0,0-.16,26.98-.16,26.98,0,0-1.01,1.53-1.02,1.54,0,0-.05-.03-.05-.03h0Z"/>
  <path d="M116.05,157.64l-2.44.02.05-.05c.05,17.24.55,41.52-.02,58.51,0,0-.06,0-.06,0-.57-16.9-.06-41.36-.02-58.51,0,0,0-.05,0-.05h.05s2.44.02,2.44.02c0,0,0,.06,0,.06h0Z"/>
  <path d="M113.58,157.62c-1.73-3.27-4.18-6.48-5.17-9.98,2.17,3.02,3.72,6.69,5.17,9.98h0Z"/>
  <path d="M108.34,216.2s-.12-30.13-.04-29.83c0,0-1.21-1.23-1.21-1.23,0,0-.05-.05-.05-.05l.04-.07s1.21-2.17,1.21-2.17c-.03.34-.11-44.78-.09-44.35.25.29-11.29-26.57-10.41-25.49,0,0-4.2,0-4.2,0,.76,15.69.07,62.04.19,78.34-.05-.02-.05,26.33-.22,26.2,0,0-.16-26.2-.16-26.2-.14-16.79-.08-61.49-.06-78.84,0,0,.25,0,.25,0h4.2s.16,0,.16,0l.06.15,10.55,25.68c.06.01-.1,44.51-.07,44.55,0,0,0,.03,0,.03,0,0-.01.02-.01.02,0,0-1.21,2.16-1.21,2.16,0,0-.02-.12-.02-.12l1.21,1.24.03.03c-.06.02.04,30.03-.13,29.94h0Z"/>
  <path d="M97.81,112.77c.05,30.88.56,74.2,0,104.63,0,0-.06,0-.06,0-.5-30.23-.17-74.09.06-104.64h0Z"/>
  <path d="M93.55,112.78c-3.89-8.06-9.79-19.15-13.06-27.35,2.56,4.2,4.66,9.01,6.78,13.56-.05.02,6.48,13.84,6.28,13.79h0Z"/>
  <path d="M42.34,0c13.38,24.69,27.71,52.05,40.38,77.1C69.33,52.42,55.01,25.06,42.34,0h0Z"/>
  <path d="M80.83,72.51l-.3,146.05c.52-.26-1.35-147.08.3-146.05h0Z"/>
  <path d="M18.33,122.42s7.12-.02,7.12-.02c0-.03,55.19,42.51,55.2,42.51,0,0-.31.33-.31.33,0,0-2.44-2.81-2.44-2.81l-.1-.11s.06-.14.06-.14c0,0,2.42-5.49,2.42-5.49-12.92-11.49-41.79-39.49-54.84-51.94,0,0-7.12-.07-7.12-.07,0,0,0-.06,0-.06,0,0,7.12-.07,7.12-.07,13.82,12.98,42.05,39.07,55.29,52.35,0,0-2.44,5.48-2.44,5.48l-.04-.25s2.43,2.82,2.43,2.82c0,0-.31.33-.31.33.01,0-55.06-42.82-54.93-42.77,0,0-7.12-.02-7.12-.02,0,0,0-.06,0-.06h0Z"/>
  <path d="M25.49,87.05c.05,58.58.54,144.67,0,202.46,0,0-.06,0-.06,0-.48-57.45-.17-144.36.06-202.46h0Z"/>
  <path d="M18.33,88.94c.37,61.22.37,129.9,0,191.12-.37-61.22-.37-129.9,0-191.12h0Z"/>
  <path d="M80.83,224.91c-.06.13,0,42.25-.18,42.32,0,0-80.65,76.14-80.65,76.14.04.03,80.65-76.79,80.34-76.27,0,0-.12-42.19-.12-42.19,0,0,.61,0,.61,0h0Z"/>
  <path d="M203.56,176.85s-.04-1.15-.04-1.15v-.03s.03-.02.03-.02c5.3-3.69,10.68-7.26,16.17-10.68,0,0,.07-.04.07-.04,0,0,.07.01.07.01l2.66.4s.13.02.13.02c0,0,0,.13,0,.12-.11,15.77.48,31.54-.11,47.3-.77-15.61,0-31.58-.18-47.3,0,0,.13.14.13.14,0,0-2.68-.29-2.68-.29-1.99,1.56-5.44,3.63-7.96,5.29-2.66,1.66-5.64,3.66-8.19,5.07,0,0-.04,1.15-.04,1.15h-.06Z"/>
  <path d="M219.86,165.14c.53,7.96-.09,15.91.14,23.87.21,7.96.23,15.91-.14,23.87,0,0-.06,0-.06,0-.37-7.96-.34-15.91-.14-23.87.28-7.92-.51-16.07.2-23.87h0Z"/>
  <polygon points="222.36 167.66 239.13 158.89 222.65 168.19 222.36 167.66 222.36 167.66"/>
  <path d="M240.06,216.11c-.14-7.27-.14-17.92-.19-25.31,0,0,0-.09,0-.09l.07-.07,1.42-1.38-.06.25-1.44-3.87s-.02-.07-.02-.09c-.07-8.43.1-20.58.11-29.13,0,0,0-.09,0-.09,0,0,.07-.04.07-.04l8.49-4.7c5.49-3.05,19.79-11.32,25.46-14.39,0,0,3.75.43,3.75.43,0,0,.22.03.22.03.03,12.42.08,43.72-.06,55.74-.09,6.13.03,12.49-.23,18.5-.08-6.17-.14-12.34-.17-18.5-.13-11.74-.08-43.37-.06-55.51,0,0,.22.25.22.25l-3.74-.48c.71-.3-17.01,9.47-16.83,9.38,0,0-8.48,4.72-8.48,4.72l-8.44,4.79.07-.13c.05,8.6.13,20.66.11,29.13-.11-.42,1.41,3.89,1.39,3.8,0,0,.05.14.05.14,0,0-.11.1-.11.1,0,0-1.43,1.36-1.43,1.36l.07-.16c-.07,7.37.02,18.15-.25,25.31h0Z"/>
  <path d="M273.97,137.43c.53,12.44-.09,24.88.14,37.32.22,12.44.22,24.88-.14,37.32,0,0-.06,0-.06,0-.35-12.44-.35-24.88-.14-37.32.29-12.4-.51-25.03.2-37.32h0Z"/>
  <polygon points="277.54 139.67 319.47 117.75 277.82 140.21 277.54 139.67 277.54 139.67"/>
  <path d="M366.82,87.64c-11.49,6.2-36.28,20.23-47.11,25.73.04,14.68,0,36.66-.06,51.41,0,0,1.93,7.68,1.93,7.68l.02.07s-.04.06-.04.06l-1.96,2.68.03-.09c-.12,17.54,0,42.89.03,60.69,0,0-.36,0-.36,0,.26-4.28.72-8.54,1.45-12.76.77-4.27,1.68-8.58,3.72-12.46.07,0,37.99-.99,38.09-.99,0,0,.42-.01.42-.01l-.14.4c-4.42,13.24-8.88,26.8-9.86,40.8.8,3.91,1.29,8.99-.38,13.05-1.35,3.48-4.76,4.7-8.25,4.5-5.49.21-10.97-.53-16.43-.29-4.35.21-8.76,1.28-12.39,3.78-.03,0-7.95-2.32-7.99-2.33,0,0,.02-.06.02-.06,0,0,7.98,2.22,7.98,2.22,0,0-.07.01-.07.01,3.62-2.55,8.06-3.7,12.43-3.93,5.5-.27,10.95.43,16.43.18,3.33.14,6.58-.92,7.83-4.28,1.59-4.06,1.08-8.69.26-12.88.53-10.59,3.56-20.85,6.56-30.95,1.04-3.36,2.13-6.71,3.3-10.03l.28.39-37.94.93.22-.13c-1.98,3.75-2.9,8-3.67,12.15-.75,4.2-1.23,8.45-1.52,12.7,0,0-.36,0-.36,0,.08-17.9.1-43.05.03-60.69,0,0,0-.05,0-.05,0,0,.03-.04.03-.04,0,0,1.94-2.69,1.94-2.69,0,0-.03.13-.03.13l-1.97-7.67c-.02-15.12-.15-36.71-.06-51.64,11.86-6.32,35.74-19.47,47.59-25.59h0Z"/>
  <path d="M373.38,102.95c.4,43.3.4,90.92,0,134.21-.4-43.3-.4-90.92,0-134.21h0Z"/>
  <path d="M377.08,107.06c.4,39.13.4,82.16,0,121.29-.4-39.13-.4-82.16,0-121.29h0Z"/>
  <path d="M114.82,41.72c2.07,15.17,6.14,45.64,8.12,60.81,0,0,8,60.83,8,60.83l-.58.04s0-5.57.01-5.45c-2.89-29.85-7.01-71.86-9.72-101.3,3.09,29.24,7.28,71.56,10.28,101.25,0,.03,0,5.47.01,5.5,0,0-.58.04-.58.04-4.43-34.48-11.34-87.61-15.55-121.72h0Z"/>
  <path d="M130.64,157.91l65.65,5.27s.21.02.21.02c0,0,0,.21,0,.21,0,0,.01,4.52.01,4.52v.26s-.26-.02-.26-.02l-32.81-2.2c-8.17-.6-24.63-1.83-32.79-2.47,0,0-.09,0-.09,0,0,0,0-.09,0-.09,0,0,.08-5.5.08-5.5h0ZM130.68,157.95l.08,5.45s-.09-.1-.09-.1c8.19.49,24.64,1.52,32.82,2.06,0,0,32.8,2.32,32.8,2.32l-.26.24v-4.52c1.34.7-65.63-5.67-65.35-5.45h0Z"/>
  <path d="M364.33,22.85c-.05-.06-168.29,141.27-167.82,140.55,0,0,0,4.52,0,4.52l-.39-.19,67.15-51.55c.03.05,67.39-51.46,67.39-51.24-33.37,25.85-100.69,77.59-134.25,103.18,0,0-.39.3-.39.3v-.49s0-4.52,0-4.52c-.05-.2,168.19-140.58,168.3-140.55h0Z"/>
  <path d="M150.14,42.46c-.09-.07-7.09,110.08-7.5,109.02,0,0,47.13,5.06,47.13,5.06,31.21-34.27,97.58-105.7,129.73-140.1-32.34,35.12-97.17,105.89-129.78,140.6-.17-.13-47.14-5.09-47.3-5.19-.01-.13,7.61-109.36,7.73-109.39h0Z"/>
  <path d="M189.71,156.79l-.06-6.21.08.09c-13.76-1.43-33.19-3.11-46.69-5.1,7.68.37,15.64,1.37,23.38,2.22.13.02,23.3,2.7,23.41,2.71,0,0,0,.08,0,.08,0,0-.06,6.21-.06,6.21,0,0-.06,0-.06,0h0Z"/>
  <path d="M189.72,150.56c29.93-35.52,73.6-87.98,103.58-122.63,0,0,.05.04.05.04-29.02,35.1-73.75,87.57-103.62,122.59h0Z"/>
  <polygon points="143.6 137.43 195.64 143.33 195.57 143.93 143.6 137.43 143.6 137.43"/>
  <polygon points="144.35 126.37 203.63 133.88 203.55 134.48 144.35 126.37 144.35 126.37"/>
  <polygon points="145.35 111.87 214.53 120.98 214.44 121.59 145.35 111.87 145.35 111.87"/>
  <polygon points="146.48 95.43 226.31 107.04 226.22 107.64 146.48 95.43 146.48 95.43"/>
  <polygon points="147.92 75.28 239.18 91.81 239.07 92.41 147.92 75.28 147.92 75.28"/>
  <path d="M149.32,53.96l106.42,18.25c.95,1.84-106.36-18.77-106.42-18.25h0Z"/>
  <path d="M120.09,206.67l-4.05-.49s-2.44-.08-2.44-.08c0,0,2.44-.08,2.44-.08,0,0,4.07.24,4.08.24,0,0-.04.4-.04.4h0Z"/>
  <polygon points="120.11 210.79 113.6 210.59 120.11 210.38 120.11 210.79 120.11 210.79"/>
  <path d="M108.33,205.15s-10.6-1.85-10.55-1.84c0,0-4.2-.09-4.2-.09.01,0,4.2-.09,4.21-.08,0,0,10.63,1.41,10.63,1.41,0,0-.09.6-.09.6h0Z"/>
  <polygon points="108.37 210.89 93.58 210.14 108.38 210.28 108.37 210.89 108.37 210.89"/>
  <path d="M80.52,200.92c-9.2-1.43-32.47-5.05-41.34-6.44-4.54-.72-9.31-1.53-13.72-2.34-2.37-.04-4.75-.1-7.12-.17v-.06c2.38-.07,4.76-.13,7.14-.17,4.61.67,9.21,1.37,13.8,2.14,8.72,1.52,32.38,5.35,41.25,7.04h0Z"/>
  <path d="M80.52,210.17c-18.28-.46-44.18-1.3-62.19-1.94,0,0,0-.06,0-.06,10.21-.4,20.91.23,31.1.63-.02.05,31.22,1.2,31.08,1.37h0Z"/>
  <polygon points="119.56 193.57 116.05 190.22 119.7 193.42 119.56 193.57 119.56 193.57"/>
  <polygon points="108.21 186.56 97.78 179.39 108.54 186.05 108.21 186.56 108.21 186.56"/>
  <polygon points="108.17 183.14 97.78 173.43 108.58 182.68 108.17 183.14 108.17 183.14"/>
  <path d="M203.53,194.79s16.29-4.33,16.3-4.33c0,0,2.67.03,2.67.03l-2.67.03s-16.2,4.67-16.19,4.66c0,0-.11-.39-.11-.39h0Z"/>
  <path d="M203.54,198.07s16.29-3.78,16.29-3.78c0,0,2.67.03,2.67.03l-2.67.03s-16.2,4.12-16.19,4.12c0,0-.1-.39-.1-.39h0Z"/>
  <path d="M204.18,197.23s15.65-4.27,15.65-4.26c0,0,2.67.03,2.67.03l-2.67.03s-15.55,4.6-15.54,4.59c0,0-.11-.39-.11-.39h0Z"/>
  <path d="M240.01,185.26s33.92-9.03,33.92-9.03c0,0,3.74.03,3.74.03l-3.74.03s-33.77,9.56-33.76,9.56c0,0-.16-.58-.16-.58h0Z"/>
  <path d="M240.03,190.51s33.91-7.31,33.91-7.31c0,0,3.74.03,3.74.03l-3.74.03s-33.78,7.85-33.78,7.85c0,0-.13-.59-.13-.59h0Z"/>
  <path d="M241.44,189.14s32.49-8.27,32.5-8.26c0,0,3.74.03,3.74.03l-3.74.03s-32.35,8.79-32.34,8.79c0,0-.15-.59-.15-.59h0Z"/>
  <path d="M319.4,164.53s53.98-13.52,53.99-13.51c0,0,3.7.02,3.7.02l-3.7.02s-53.84,14.06-53.84,14.06c0,0-.15-.59-.15-.59h0Z"/>
  <path d="M319.41,174.88s53.97-10.81,53.97-10.81c0,0,3.7.02,3.7.02l-3.7.02s-53.85,11.36-53.85,11.36c0,0-.12-.59-.12-.59h0Z"/>
  <path d="M321.35,172.2s52.03-12.97,52.04-12.97c0,0,3.7.02,3.7.02,0,0-3.7.02-3.7.02.02,0-51.89,13.52-51.89,13.52,0,0-.15-.59-.15-.59h0Z"/>
  <path d="M203.57,207.72c2.18-.15,17.15-1.79,18.93-1.49,0,0-2.67.03-2.67.03.01,0-16.22,1.86-16.22,1.86,0,0-.04-.4-.04-.4h0Z"/>
  <polygon points="203.58 211.15 222.5 210.62 203.6 211.55 203.58 211.15 203.58 211.15"/>
  <path d="M240.06,204.47c1.99-.1,36.75-3.32,37.62-2.8-.68-.52-35.73,3.29-37.56,3.41,0,0-.06-.6-.06-.6h0Z"/>
  <polygon points="240.08 209.27 277.68 208.43 240.1 209.87 240.08 209.27 240.08 209.27"/>
  <path d="M319.45,197.49s53.93-4.1,53.94-4.1c0,0,3.7.02,3.7.02l-3.7.02s-53.89,4.67-53.89,4.67c0,0-.05-.6-.05-.6h0Z"/>
  <path d="M319.46,206.53c16.78-.29,41.47-1.08,58.03-1.16-16.47.25-41.32,1.31-58.01,1.76,0,0-.02-.61-.02-.61h0Z"/>
  <g>
    <path d="M145.86,235.64c-1.38-.5-2.87-.67-4.31-.49-3.28.52-8.1,3.39-10.32-.63-.35-.69-.54-1.43-.69-2.16-1.13-5.79-2.38-11.55-3.73-17.29.14-8.1.05-19.74-.03-27.96,0,0,0-.21,0-.21h.21s17.18-.11,17.18-.11c0,0,.32,0,.32,0,0,0,0,.32,0,.32,0,12.07-.06,24.59-.29,36.62-.39-11.87-.3-24.61-.35-36.62,0,0,.32.32.32.32l-17.18-.11s.21-.21.21-.21c-.06,8.19-.18,20.02-.03,27.92,1.52,5.69,2.8,11.45,3.85,17.24.42,3.45,2.99,4.6,6.2,3.7,2.68-.85,6.07-1.73,8.64-.32h0Z"/>
    <path d="M135.89,214.7c-.16-.27-.48-.29-.77-.25l-.89.07s-1.78.14-1.78.14c-6.41.52-18.38,1.48-24.91,2.01,0,0-28.47,2.3-28.47,2.3,0,0,.14-.05.14-.05-.61.49-1.15,1.28-.91,1.99.29.8,1.14,1.26,1.88,1.64-.08.01,6.37,25.58,6.32,25.63.86,3.81,2.41,9,2.98,12.81.56,4.37.23,8.78-.14,13.14-.35,4.29-.99,8.86.8,12.91,1.84,3.94,5.9,6.53,9.88,7.97,4.24,1.58,8.6.22,12.77-.94,0,0,12.77-3.11,12.77-3.11,3.45-1.09,7.24-2.03,10.96-2.14,1.84.02,4.19.15,5.21,1.98,1.29,1.9.93,4.16-1.63,4.72,0,0,.08-.53.08-.53l2.16,1.17c2.27-1.22,2.51-5.2,2.63-7.78.13-3.03.21-6.07.27-9.1.13-6.07.14-12.15.2-18.22.13-12.08.16-24.51.17-36.41-.85-1.12-2.6-1.02-3.88-.85-1,.04-2.22.88-3.16.14-.95-1.53-1.14-3.4-1.59-5.13-.39-1.37-.36-2.87-1.11-4.1h0ZM135.94,214.66c.77,1.25.75,2.76,1.16,4.12.45,1.68.67,3.57,1.59,5.04.9.66,2.04-.15,3.04-.2,1.38-.18,3.13-.33,4.09.92.17,18.24.38,36.49.03,54.74-.21,4.58.05,9.18-.81,13.71-.37,1.11-.79,2.26-1.63,3.13-.31.28-.63.6-1.25.56,0,0-.03,0-.03,0l-.05-.03c-.56-.33-2.31-1.24-2.81-1.53,0,0,.74-.17.74-.17,2.09-.47,2.38-2.2,1.25-3.87-1.85-2.83-7.33-1.49-10.19-1.03-1.81.38-3.61.86-5.38,1.41,0,0-12.79,3.01-12.79,3.01-4.18,1.14-8.72,2.48-12.98.84-4.07-1.49-8.14-4.14-10.01-8.18-1.8-4.12-1.12-8.71-.75-13.03.38-4.35.65-8.76.08-13.09-.64-3.74-2.15-9.02-3.06-12.76,0,0-6.45-25.48-6.45-25.48l.14.17c-1.27-.53-2.74-1.89-1.89-3.36.24-.46.57-.83.98-1.15,0,0,.08,0,.08,0,0,0,28.49-2.05,28.49-2.05,6.58-.47,18.46-1.34,24.92-1.8,0,0,1.78-.13,1.78-.13,0,0,.89-.06.89-.06.3-.04.66-.01.82.28h0Z"/>
    <path d="M81.79,220.57c2.79,10.33,5.45,20.69,8,31.08,1.47,5.15,2.15,10.55,1.69,15.92-.17,6.41-2.37,13.81,1.77,19.39,3.36,3.94,8.57,6.76,13.82,6.49,2.65-.18,5.19-1.09,7.77-1.7,2.49-.59,9.14-2.17,11.71-2.77,3.91-.93,7.94-1.58,11.97-1.47,1.34.15,2.85.06,3.91,1.03,2,1.99,1.6,5.5.25,7.59,1.14-2.3,1.52-5.45-.45-7.37-.97-.86-2.49-.76-3.72-.88-3.99-.04-7.96.67-11.82,1.66-2.6.63-9.19,2.23-11.7,2.83-2.32.55-5.5,1.59-7.89,1.68-5.46.25-10.77-2.72-14.17-6.85-4.16-5.74-1.78-13.15-1.67-19.65.44-5.38-.42-10.63-1.97-15.78-2.57-10.34-5.32-20.89-7.51-31.21h0Z"/>
    <path d="M100.97,217.02c2.81,9.72,5.2,20.72,7.07,30.72.86,3.53,1.99,12.09,3.69,15.23,2.45,5.02,8.82,5.29,13.58,3.89,3.35-.89,6.67-2.22,10.22-2.52,3.52-.32,7.11.2,10.35,1.56-3.22-.96-6.87-1.59-10.31-1.12-3.46.38-6.69,1.79-10.11,2.68-8.2,2.28-14.48-.41-15.67-9.36-1.99-11.99-6.41-29.13-8.83-41.08h0Z"/>
    <path d="M113.15,216.11c3.02,9.78,4.59,19.9,6.71,29.89.98,6.17,5.32,7.93,11,6.36,2.43-.64,4.86-1.61,7.46-1.83,2.58-.22,5.2.2,7.56,1.2-2.34-.63-5.02-1.11-7.51-.73-2.51.28-4.86,1.31-7.35,1.96-5.92,1.71-10.71-.38-11.49-6.9-1.61-10.06-4.6-20.04-6.38-29.96h0Z"/>
    <path d="M121.37,215.29c1.13,3.66,2.07,7.37,2.85,11.12,1.01,4.62,1.36,9.52,3.11,13.92,2.87,4.83,8.68,1.04,12.89.68,1.88-.12,4.11.11,5.65,1.01-1.81-.6-3.74-.78-5.6-.54-1.87.22-3.62.99-5.49,1.49-4.43,1.31-8.14-.34-8.67-5.23-1.13-7.54-3.58-15.02-4.73-22.45h0Z"/>
    <path d="M131.59,214.67c1.05,3.19,1.67,6.49,2.24,9.79.55,1.83.58,4.84,2.38,5.81,2.07.93,4.2-.57,6.35-.69,1.09-.04,2.5.09,3.3.7-1.07-.31-2.18-.38-3.25-.23-2.47.49-6.29,2.57-7.89-.6-.26-.54-.36-1.11-.45-1.67-.66-4.39-2.44-8.75-2.68-13.12h0Z"/>
    <path d="M134.63,214.45c1.26,3.26,1.41,6.77,2.36,10.11.21.82.55,1.62,1.24,1.93,1.59.69,3.22-.46,4.89-.53.84-.01,2,.09,2.56.6-.84-.21-1.69-.26-2.51-.13-1.92.42-4.92,2.03-6.17-.49-.47-1.25-.44-2.58-.82-3.86-.67-2.47-1.51-5.13-1.55-7.63h0Z"/>
    <polygon points="113.57 294.17 113.27 311.16 112.97 294.17 113.57 294.17 113.57 294.17"/>
    <polygon points="117.99 293.11 117.68 308.56 117.38 293.11 117.99 293.11 117.99 293.11"/>
  </g>
  <path d="M208.99,285.95c7.82.51,10.25,20.89,25.26,23.16,1.66.22,3.37.12,4.98-.36-1.6.51-3.32.65-4.99.46-14.95-1.96-18.13-22-25.27-22.45,0,0,.03-.81.03-.81h0Z"/>
  <polygon points="317.64 224.45 276.86 224.59 317.63 223.64 317.64 224.45 317.64 224.45"/>
  <path d="M302.4,261.7c-3.76,1-7.56,1.79-11.39,2.36,3.78-.84,7.5-1.88,11.15-3.13l.23.77h0Z"/>
  <path d="M359.16,211.94c-6.31,13.11-9.28,27.81-8.37,42.32.26,3.52.6,7.99-2.69,10.35-3.33,1.98-7.27.8-10.89.82-3.63-.21-7.27-.33-10.88.16-3.6.45-7.14,1.42-10.49,2.86,3.31-1.53,6.83-2.59,10.45-3.15,5.24-.8,11.11-.28,16.39-.11,7.34.57,8.17-4.94,7.5-10.88-.86-14.58,2.21-29.41,8.97-42.36h0Z"/>
  <path d="M136.04,214.88c-17.19,2.41-34.4,4.7-51.62,6.86,17.19-2.41,34.4-4.7,51.62-6.86h0Z"/>
  <g class="cls-1">
    <polygon points="73.49 38.7 133.74 180.69 133.18 180.92 73.49 38.7 73.49 38.7"/>
  </g>
  <g class="cls-1">
    <path d="M198.99,175.8l194.12-122.1c-.51-.34-194.09,124.1-194.12,122.1h0Z"/>
  </g>
  <g class="cls-1">
    <path d="M330.65,240.19c-73.54,8.75-156.08,18.16-229.71,26.18,73.54-8.76,156.08-18.16,229.71-26.18h0Z"/>
  </g>
  <g class="cls-1">
    <path d="M36.3,27.95c1.05,102.46,1.06,217.4,0,319.85-1.06-102.46-1.05-217.4,0-319.85h0Z"/>
  </g>
  <g class="cls-1">
    <path d="M29.5,27.95c1.05,102.46,1.06,217.4,0,319.85-1.06-102.46-1.05-217.4,0-319.85h0Z"/>
  </g>
  <g class="cls-1">
    <path d="M366.81,61.62c.49,75.12.5,159.39,0,234.51-.5-75.12-.49-159.39,0-234.51h0Z"/>
  </g>
  <g class="cls-1">
    <path d="M295.92,291.88c-13.76,5.32-29.65,11.16-43.56,16.16-.22.09-.44-.17-.32-.37,3.49-6.45,6.37-13.74,5.27-21.2,1.39,7.44-1.33,14.96-4.8,21.46,0,0-.32-.37-.32-.37,13.88-5.13,29.78-10.88,43.75-15.66h0Z"/>
  </g>
  <g class="cls-1">
    <path d="M152.19,212.87c9.34,27.71,21.55,68.08,30.44,96.38,0,0-.06.02-.06.02-8.96-28.41-22.28-68.29-30.38-96.4h0Z"/>
  </g>
  <polygon points="331.46 277.84 401.2 312.2 331.2 278.39 331.46 277.84 331.46 277.84"/>
  <polygon points="274.44 303.66 273.94 330.91 273.44 303.66 274.44 303.66 274.44 303.66"/>
  <polygon points="264.41 307.52 263.91 340.27 263.41 307.52 264.41 307.52 264.41 307.52"/>
  <polygon points="183.27 219.67 183.4 202.7 183.52 219.67 183.27 219.67 183.27 219.67"/>
  <g>
    <g>
      <path d="M179.91,175.16l-.12,38.6c.21-.07-.56-39.06.12-38.6h0Z"/>
      <path d="M181.91,175.25l-.12,41.78c.21-.07-.56-42.23.12-41.78h0Z"/>
      <polygon points="182.94 175.25 182.82 204.82 182.69 175.25 182.94 175.25 182.94 175.25"/>
      <path d="M185.35,175.41l-.12,42.11c.21-.07-.56-42.56.12-42.11h0Z"/>
      <polygon points="187.01 175.49 186.89 207.08 186.76 175.49 187.01 175.49 187.01 175.49"/>
      <path d="M189.22,175.59l-.12,44.2c.22-.08-.56-44.65.12-44.2h0Z"/>
      <polygon points="190.3 175.64 190.17 210.98 190.05 175.64 190.3 175.64 190.3 175.64"/>
      <polygon points="194.42 175.83 194.29 210.62 194.17 175.83 194.42 175.83 194.42 175.83"/>
      <path d="M196.74,175.94l-.12,37.35c.21-.19-.55-37.74.12-37.35h0Z"/>
      <polygon points="197.49 175.94 197.36 204.03 197.24 175.94 197.49 175.94 197.49 175.94"/>
      <polygon points="200.57 176.11 200.45 212.18 200.32 176.11 200.57 176.11 200.57 176.11"/>
      <polygon points="201.7 176.17 201.58 209.2 201.45 176.17 201.7 176.17 201.7 176.17"/>
    </g>
    <polygon points="188.1 220.24 188.22 184.37 188.35 220.24 188.1 220.24 188.1 220.24"/>
    <polygon points="198.74 213.29 198.86 182.71 198.99 213.29 198.74 213.29 198.74 213.29"/>
  </g>
  <g>
    <path d="M129.27,209.2c1.54-.17,3.08-.17,4.63,0-1.54.17-3.08.17-4.63,0h0Z"/>
    <path d="M129.71,208.77c.17.6.17,1.21,0,1.81-.17-.6-.17-1.21,0-1.81h0Z"/>
    <path d="M129.01,210.14c1.58-.17,3.16-.17,4.74,0-1.58.17-3.16.17-4.74,0h0Z"/>
    <path d="M133.39,208.88c.17.56.17,1.14,0,1.7-.17-.56-.17-1.14,0-1.7h0Z"/>
  </g>
</svg>