<?xml version="1.0" encoding="UTF-8"?>
<svg id="_레이어_1" data-name="레이어 1" xmlns="http://www.w3.org/2000/svg" viewBox="0 0 500 500">
  <defs>
    <style>
      .cls-1 {
        fill: #ae1118;
      }

      .cls-2 {
        fill: #fff;
      }
    </style>
  </defs>
  <path class="cls-2" d="M290.4,306c-.26-.35-.57-.63-.95-.83-.38-.2-.81-.3-1.3-.3-.59,0-1.13.17-1.6.5-.47.33-.84.82-1.12,1.45-.27.63-.41,1.39-.41,2.25s.14,1.62.41,2.25c.27.63.65,1.12,1.13,1.45.48.33,1.03.5,1.65.5.57,0,1.07-.13,1.5-.4.43-.27.76-.65,1-1.15.24-.5.36-1.08.35-1.74l.29.08h-2.93v-.87h3.54v.86c0,.83-.16,1.56-.48,2.19-.32.63-.76,1.11-1.33,1.45-.56.34-1.21.51-1.94.51-.8,0-1.51-.21-2.12-.63-.61-.42-1.09-1.02-1.43-1.79-.34-.77-.51-1.68-.51-2.71s.17-1.94.51-2.71c.34-.77.81-1.37,1.42-1.79.6-.42,1.3-.63,2.07-.63.66,0,1.26.14,1.79.43.53.29.96.68,1.3,1.17.34.49.56,1.04.66,1.65h-.94c-.12-.45-.3-.84-.55-1.2"/>
  <path class="cls-2" d="M233.35,306c-.25-.35-.57-.63-.95-.83-.38-.2-.81-.3-1.3-.3-.59,0-1.13.17-1.6.5-.47.33-.84.82-1.12,1.45-.27.63-.41,1.39-.41,2.25s.14,1.62.41,2.25c.27.63.65,1.12,1.13,1.45.48.33,1.03.5,1.65.5.57,0,1.07-.13,1.5-.4.43-.27.76-.65,1-1.15.24-.5.35-1.08.35-1.74l.29.08h-2.93v-.87h3.54v.86c0,.83-.16,1.56-.48,2.19-.32.63-.76,1.11-1.33,1.45-.56.34-1.21.51-1.94.51-.8,0-1.51-.21-2.12-.63-.61-.42-1.09-1.02-1.43-1.79-.34-.77-.51-1.68-.51-2.71s.17-1.94.51-2.71c.34-.77.81-1.37,1.42-1.79s1.3-.63,2.07-.63c.66,0,1.26.14,1.79.43.53.29.96.68,1.3,1.17.34.49.56,1.04.66,1.65h-.94c-.12-.45-.3-.84-.55-1.2"/>
  <path class="cls-2" d="M270.54,314.07h-1.06l-2.26-4.5h1.04l2.28,4.5ZM264.1,304.08h3.03c.66,0,1.21.13,1.67.38.45.25.79.6,1.02,1.06.23.45.34.98.34,1.57s-.11,1.11-.34,1.55c-.23.45-.57.8-1.02,1.05-.45.25-1.01.38-1.66.38h-2.55v-.9h2.51c.48,0,.88-.08,1.2-.25.32-.17.56-.41.72-.72.16-.31.23-.68.23-1.11s-.08-.81-.23-1.13c-.16-.32-.39-.57-.72-.74-.32-.17-.73-.26-1.21-.26h-2.08v9.11h-.91v-9.98Z"/>
  <path class="cls-1" d="M210.74,236.06h0c3.28,0,5.94-2.66,5.94-5.94s-2.66-5.94-5.94-5.94-5.94,2.66-5.94,5.94,2.66,5.94,5.94,5.94"/>
  <path class="cls-2" d="M218.02,286.59c-.21-.28-.49-.49-.86-.64-.37-.14-.8-.22-1.31-.22s-.93.07-1.29.22c-.36.14-.64.34-.83.6-.19.26-.29.55-.29.88,0,.5.2.89.62,1.17.42.28,1,.51,1.74.7l1.32.32c1.4.31,2.48.82,3.26,1.53.77.7,1.16,1.65,1.17,2.84,0,.9-.23,1.68-.68,2.36-.46.67-1.11,1.19-1.97,1.55-.86.36-1.88.55-3.07.55s-2.22-.19-3.1-.56c-.88-.37-1.56-.92-2.04-1.64-.48-.72-.74-1.61-.77-2.66h2.98c.04.49.19.9.44,1.23s.59.59,1.02.76c.43.17.91.26,1.46.26s1-.08,1.4-.24c.4-.16.71-.38.93-.66.22-.28.33-.61.33-.97,0-.33-.09-.61-.28-.84-.19-.23-.47-.43-.83-.59-.36-.16-.83-.31-1.4-.46l-1.62-.39c-1.29-.32-2.28-.81-2.97-1.48-.69-.66-1.03-1.52-1.03-2.59,0-.88.24-1.67.72-2.34.48-.68,1.14-1.21,1.99-1.58.85-.38,1.8-.57,2.87-.57s2.02.19,2.84.56c.82.37,1.46.9,1.92,1.57.45.68.69,1.45.7,2.33h-2.95c-.04-.4-.16-.74-.37-1.02"/>
  <path class="cls-2" d="M255.73,286.59c-.21-.28-.49-.49-.86-.64-.37-.14-.8-.22-1.31-.22s-.93.07-1.29.22c-.36.14-.64.34-.83.6-.19.26-.29.55-.29.88,0,.5.2.89.62,1.17.42.28,1,.51,1.74.7l1.32.32c1.4.31,2.48.82,3.26,1.53.77.7,1.16,1.65,1.17,2.84,0,.9-.23,1.68-.68,2.36-.46.67-1.11,1.19-1.97,1.55-.86.36-1.88.55-3.07.55s-2.22-.19-3.1-.56c-.88-.37-1.56-.92-2.04-1.64-.48-.72-.74-1.61-.77-2.66h2.98c.04.49.19.9.44,1.23.25.34.59.59,1.02.76.43.17.91.26,1.46.26s.99-.08,1.4-.24c.4-.16.71-.38.93-.66.22-.28.33-.61.33-.97,0-.33-.1-.61-.29-.84-.19-.23-.47-.43-.83-.59-.36-.16-.83-.31-1.4-.46l-1.62-.39c-1.29-.32-2.28-.81-2.97-1.48-.69-.66-1.03-1.52-1.03-2.59,0-.88.24-1.67.72-2.34.48-.68,1.14-1.21,1.99-1.58.85-.38,1.8-.57,2.87-.57s2.02.19,2.84.56c.82.37,1.46.9,1.92,1.57.45.68.69,1.45.7,2.33h-2.95c-.04-.4-.16-.74-.37-1.02"/>
  <path class="cls-2" d="M273.45,283.35v9.68c0,1.07-.25,2.01-.76,2.83-.51.82-1.22,1.45-2.15,1.91-.92.46-1.99.68-3.2.68s-2.28-.23-3.2-.68c-.92-.46-1.63-1.09-2.13-1.91-.51-.82-.76-1.76-.76-2.83v-9.68h3.06v9.42c0,.56.13,1.07.38,1.52.25.45.61.8,1.07,1.06.46.26.99.39,1.59.39s1.14-.13,1.6-.39c.46-.26.82-.61,1.06-1.06.25-.45.37-.96.37-1.52v-9.42h3.07Z"/>
  <polygon class="cls-2" points="295.21 273.94 207.06 273.94 207.06 251.82 214.41 251.82 214.41 266.54 287.86 266.54 287.86 193.08 214.41 193.08 214.41 207.81 207.06 207.81 207.06 185.79 295.21 185.79 295.21 273.94"/>
  <polygon class="cls-2" points="223.55 283.35 233.45 283.35 233.45 285.9 226.61 285.9 226.61 289.52 232.94 289.52 232.94 292.06 226.61 292.06 226.61 295.69 233.47 295.69 233.47 298.24 223.55 298.24 223.55 283.35"/>
  <polygon class="cls-2" points="235.83 283.35 245.73 283.35 245.73 285.9 238.89 285.9 238.89 289.52 245.21 289.52 245.21 292.06 238.89 292.06 238.89 295.69 245.75 295.69 245.75 298.24 235.83 298.24 235.83 283.35"/>
  <polygon class="cls-2" points="279.71 283.35 283.81 293.44 283.99 293.44 288.08 283.35 291.87 283.35 291.87 298.24 288.89 298.24 288.89 288.48 288.77 288.48 284.91 298.17 282.87 298.17 279.03 288.46 278.9 288.46 278.9 298.24 275.94 298.24 275.94 283.35 279.71 283.35"/>
  <polygon class="cls-2" points="210.65 304.08 216.09 304.08 216.09 304.96 211.56 304.96 211.56 308.64 215.8 308.64 215.8 309.5 211.56 309.5 211.56 313.19 216.17 313.19 216.17 314.07 210.65 314.07 210.65 304.08"/>
  <polygon class="cls-2" points="225.28 314.07 224.41 314.07 219.01 305.84 218.93 305.84 218.93 314.07 218.02 314.07 218.02 304.08 218.91 304.08 224.31 312.33 224.38 312.33 224.38 304.08 225.28 304.08 225.28 314.07"/>
  <rect class="cls-2" x="236.76" y="304.08" width=".91" height="9.98"/>
  <polygon class="cls-2" points="247.13 314.07 246.26 314.07 240.86 305.84 240.79 305.84 240.79 314.07 239.88 314.07 239.88 304.08 240.76 304.08 246.16 312.33 246.24 312.33 246.24 304.08 247.13 304.08 247.13 314.07"/>
  <polygon class="cls-2" points="249.35 304.08 254.79 304.08 254.79 304.96 250.26 304.96 250.26 308.64 254.5 308.64 254.5 309.5 250.26 309.5 250.26 313.19 254.87 313.19 254.87 314.07 249.35 314.07 249.35 304.08"/>
  <polygon class="cls-2" points="256.72 304.08 262.17 304.08 262.17 304.96 257.63 304.96 257.63 308.64 261.88 308.64 261.88 309.5 257.63 309.5 257.63 313.19 262.24 313.19 262.24 314.07 256.72 314.07 256.72 304.08"/>
  <rect class="cls-2" x="271.96" y="304.08" width=".91" height="9.98"/>
  <polygon class="cls-2" points="282.34 314.07 281.47 314.07 276.07 305.84 275.99 305.84 275.99 314.07 275.08 314.07 275.08 304.08 275.97 304.08 281.36 312.33 281.44 312.33 281.44 304.08 282.34 304.08 282.34 314.07"/>
</svg>