<?xml version="1.0" encoding="UTF-8"?>
<svg id="_레이어_1" data-name="레이어 1" xmlns="http://www.w3.org/2000/svg" viewBox="0 0 90.41 128.41">
  <defs>
    <style>
      .cls-1 {
        fill: #ae1118;
      }

      .cls-2 {
        fill: #fff;
      }
    </style>
  </defs>
  <path class="cls-2" d="M85.61,120.21c-.26-.35-.57-.63-.95-.83-.38-.2-.81-.3-1.3-.3-.59,0-1.13.17-1.6.5-.47.33-.84.82-1.12,1.45-.27.63-.41,1.39-.41,2.25s.14,1.62.41,2.25c.27.63.65,1.12,1.13,1.45.48.33,1.03.5,1.65.5.57,0,1.07-.13,1.5-.4.43-.27.76-.65,1-1.15.24-.5.36-1.08.35-1.74l.29.08h-2.93v-.87h3.54v.86c0,.83-.16,1.56-.48,2.19-.32.63-.76,1.11-1.33,1.45-.56.34-1.21.51-1.94.51-.8,0-1.51-.21-2.12-.63-.61-.42-1.09-1.02-1.43-1.79-.34-.77-.51-1.68-.51-2.71s.17-1.94.51-2.71c.34-.77.81-1.37,1.42-1.79.6-.42,1.3-.63,2.07-.63.66,0,1.26.14,1.79.43.53.29.96.68,1.3,1.17.34.49.56,1.04.66,1.65h-.94c-.12-.45-.3-.84-.55-1.2"/>
  <path class="cls-2" d="M28.55,120.21c-.25-.35-.57-.63-.95-.83-.38-.2-.81-.3-1.3-.3-.59,0-1.13.17-1.6.5-.47.33-.84.82-1.12,1.45-.27.63-.41,1.39-.41,2.25s.14,1.62.41,2.25c.27.63.65,1.12,1.13,1.45.48.33,1.03.5,1.65.5.57,0,1.07-.13,1.5-.4.43-.27.76-.65,1-1.15.24-.5.35-1.08.35-1.74l.29.08h-2.93v-.87h3.54v.86c0,.83-.16,1.56-.48,2.19-.32.63-.76,1.11-1.33,1.45-.56.34-1.21.51-1.94.51-.8,0-1.51-.21-2.12-.63-.61-.42-1.09-1.02-1.43-1.79-.34-.77-.51-1.68-.51-2.71s.17-1.94.51-2.71c.34-.77.81-1.37,1.42-1.79s1.3-.63,2.07-.63c.66,0,1.26.14,1.79.43.53.29.96.68,1.3,1.17.34.49.56,1.04.66,1.65h-.94c-.12-.45-.3-.84-.55-1.2"/>
  <path class="cls-2" d="M65.75,128.27h-1.06l-2.26-4.5h1.04l2.28,4.5ZM59.3,118.29h3.03c.66,0,1.21.13,1.67.38.45.25.79.6,1.02,1.06.23.45.34.98.34,1.57s-.11,1.11-.34,1.55c-.23.45-.57.8-1.02,1.05-.45.25-1.01.38-1.66.38h-2.55v-.9h2.51c.48,0,.88-.08,1.2-.25.32-.17.56-.41.72-.72.16-.31.23-.68.23-1.11s-.08-.81-.23-1.13c-.16-.32-.39-.57-.72-.74-.32-.17-.73-.26-1.21-.26h-2.08v9.11h-.91v-9.98Z"/>
  <path class="cls-1" d="M5.94,50.26h0c3.28,0,5.94-2.66,5.94-5.94s-2.66-5.94-5.94-5.94-5.94,2.66-5.94,5.94,2.66,5.94,5.94,5.94"/>
  <path class="cls-2" d="M13.23,100.8c-.21-.28-.49-.49-.86-.64-.37-.14-.8-.22-1.31-.22s-.93.07-1.29.22c-.36.14-.64.34-.83.6-.19.26-.29.55-.29.88,0,.5.2.89.62,1.17.42.28,1,.51,1.74.7l1.32.32c1.4.31,2.48.82,3.26,1.53.77.7,1.16,1.65,1.17,2.84,0,.9-.23,1.68-.68,2.36-.46.67-1.11,1.19-1.97,1.55-.86.36-1.88.55-3.07.55s-2.22-.19-3.1-.56c-.88-.37-1.56-.92-2.04-1.64-.48-.72-.74-1.61-.77-2.66h2.98c.04.49.19.9.44,1.23s.59.59,1.02.76c.43.17.91.26,1.46.26s1-.08,1.4-.24c.4-.16.71-.38.93-.66.22-.28.33-.61.33-.97,0-.33-.09-.61-.28-.84-.19-.23-.47-.43-.83-.59-.36-.16-.83-.31-1.4-.46l-1.62-.39c-1.29-.32-2.28-.81-2.97-1.48-.69-.66-1.03-1.52-1.03-2.59,0-.88.24-1.67.72-2.34.48-.68,1.14-1.21,1.99-1.58.85-.38,1.8-.57,2.87-.57s2.02.19,2.84.56c.82.37,1.46.9,1.92,1.57.45.68.69,1.45.7,2.33h-2.95c-.04-.4-.16-.74-.37-1.02"/>
  <path class="cls-2" d="M50.93,100.8c-.21-.28-.49-.49-.86-.64-.37-.14-.8-.22-1.31-.22s-.93.07-1.29.22c-.36.14-.64.34-.83.6-.19.26-.29.55-.29.88,0,.5.2.89.62,1.17.42.28,1,.51,1.74.7l1.32.32c1.4.31,2.48.82,3.26,1.53.77.7,1.16,1.65,1.17,2.84,0,.9-.23,1.68-.68,2.36-.46.67-1.11,1.19-1.97,1.55-.86.36-1.88.55-3.07.55s-2.22-.19-3.1-.56c-.88-.37-1.56-.92-2.04-1.64-.48-.72-.74-1.61-.77-2.66h2.98c.04.49.19.9.44,1.23.25.34.59.59,1.02.76.43.17.91.26,1.46.26s.99-.08,1.4-.24c.4-.16.71-.38.93-.66.22-.28.33-.61.33-.97,0-.33-.1-.61-.29-.84-.19-.23-.47-.43-.83-.59-.36-.16-.83-.31-1.4-.46l-1.62-.39c-1.29-.32-2.28-.81-2.97-1.48-.69-.66-1.03-1.52-1.03-2.59,0-.88.24-1.67.72-2.34.48-.68,1.14-1.21,1.99-1.58.85-.38,1.8-.57,2.87-.57s2.02.19,2.84.56c.82.37,1.46.9,1.92,1.57.45.68.69,1.45.7,2.33h-2.95c-.04-.4-.16-.74-.37-1.02"/>
  <path class="cls-2" d="M68.66,97.56v9.68c0,1.07-.25,2.01-.76,2.83-.51.82-1.22,1.45-2.15,1.91-.92.46-1.99.68-3.2.68s-2.28-.23-3.2-.68c-.92-.46-1.63-1.09-2.13-1.91-.51-.82-.76-1.76-.76-2.83v-9.68h3.06v9.42c0,.56.13,1.07.38,1.52.25.45.61.8,1.07,1.06.46.26.99.39,1.59.39s1.14-.13,1.6-.39c.46-.26.82-.61,1.06-1.06.25-.45.37-.96.37-1.52v-9.42h3.07Z"/>
  <polygon class="cls-2" points="90.41 88.14 2.27 88.14 2.27 66.02 9.61 66.02 9.61 80.74 83.07 80.74 83.07 7.29 9.61 7.29 9.61 22.01 2.27 22.01 2.27 0 90.41 0 90.41 88.14"/>
  <polygon class="cls-2" points="18.76 97.56 28.66 97.56 28.66 100.11 21.81 100.11 21.81 103.73 28.14 103.73 28.14 106.27 21.81 106.27 21.81 109.9 28.68 109.9 28.68 112.45 18.76 112.45 18.76 97.56"/>
  <polygon class="cls-2" points="31.04 97.56 40.94 97.56 40.94 100.11 34.09 100.11 34.09 103.73 40.42 103.73 40.42 106.27 34.09 106.27 34.09 109.9 40.96 109.9 40.96 112.45 31.04 112.45 31.04 97.56"/>
  <polygon class="cls-2" points="74.91 97.56 79.02 107.65 79.19 107.65 83.29 97.56 87.07 97.56 87.07 112.45 84.1 112.45 84.1 102.69 83.97 102.69 80.12 112.38 78.07 112.38 74.23 102.67 74.11 102.67 74.11 112.45 71.14 112.45 71.14 97.56 74.91 97.56"/>
  <polygon class="cls-2" points="5.85 118.29 11.3 118.29 11.3 119.17 6.77 119.17 6.77 122.84 11.01 122.84 11.01 123.71 6.77 123.71 6.77 127.39 11.38 127.39 11.38 128.27 5.85 128.27 5.85 118.29"/>
  <polygon class="cls-2" points="20.49 128.27 19.61 128.27 14.22 120.04 14.14 120.04 14.14 128.27 13.23 128.27 13.23 118.29 14.11 118.29 19.51 126.54 19.59 126.54 19.59 118.29 20.49 118.29 20.49 128.27"/>
  <rect class="cls-2" x="31.97" y="118.29" width=".91" height="9.98"/>
  <polygon class="cls-2" points="42.34 128.27 41.47 128.27 36.07 120.04 35.99 120.04 35.99 128.27 35.08 128.27 35.08 118.29 35.97 118.29 41.37 126.54 41.44 126.54 41.44 118.29 42.34 118.29 42.34 128.27"/>
  <polygon class="cls-2" points="44.55 118.29 50 118.29 50 119.17 45.46 119.17 45.46 122.84 49.71 122.84 49.71 123.71 45.46 123.71 45.46 127.39 50.08 127.39 50.08 128.27 44.55 128.27 44.55 118.29"/>
  <polygon class="cls-2" points="51.93 118.29 57.37 118.29 57.37 119.17 52.84 119.17 52.84 122.84 57.08 122.84 57.08 123.71 52.84 123.71 52.84 127.39 57.45 127.39 57.45 128.27 51.93 128.27 51.93 118.29"/>
  <rect class="cls-2" x="67.17" y="118.29" width=".91" height="9.98"/>
  <polygon class="cls-2" points="77.55 128.27 76.67 128.27 71.27 120.04 71.2 120.04 71.2 128.27 70.29 128.27 70.29 118.29 71.17 118.29 76.57 126.54 76.65 126.54 76.65 118.29 77.55 118.29 77.55 128.27"/>
</svg>