<?xml version="1.0" encoding="UTF-8"?>
<svg id="_레이어_1" data-name="레이어 1" xmlns="http://www.w3.org/2000/svg" viewBox="0 0 700 63.44">
  <defs>
    <style>
      .cls-1 {
        fill: none;
        stroke: #000;
        stroke-miterlimit: 10;
      }
    </style>
  </defs>
  <path class="cls-1" d="M-100.59,3.29C-64.81,9.3-15.05,23.28-3.66,26.91c14.64,4.67,87.8,32.12,124.45,35.49,16.42,1.51,27.95-.35,35.68-2.86"/>
  <path class="cls-1" d="M-100.59,3.29c6.13-1.5,15.07-2.79,27.72-2.79,6.71,0,15.76,1.07,25.94,2.79h.01C-11.14,9.3,38.63,23.28,50.02,26.91c12.5,3.99,67.77,24.62,106.45,32.63,6.58,1.37,12.68,2.37,18,2.86,16.4,1.51,27.94-.35,35.66-2.86h.01"/>
  <path class="cls-1" d="M-46.93,3.29h.01c6.12-1.5,15.07-2.79,27.72-2.79C-12.49.5-3.44,1.57,6.75,3.29h0c35.78,6.01,85.54,19.99,96.94,23.62,12.5,3.99,67.76,24.62,106.43,32.63h.01c6.58,1.37,12.68,2.37,18,2.86,16.4,1.5,27.93-.35,35.66-2.86h.01"/>
  <path class="cls-1" d="M6.75,3.29h0C12.88,1.79,21.83.5,34.48.5c6.72,0,15.76,1.07,25.95,2.79h.01c35.79,6.01,85.54,19.99,96.93,23.62,12.51,3.99,67.76,24.62,106.43,32.63h.01c6.58,1.37,12.68,2.37,18.01,2.86,16.4,1.5,27.93-.35,35.66-2.86h.01"/>
  <path class="cls-1" d="M60.43,3.29h.01c6.12-1.5,15.07-2.79,27.72-2.79,6.71,0,15.76,1.07,25.95,2.79,35.79,6.01,85.55,19.99,96.94,23.62,12.5,3.99,67.76,24.62,106.43,32.63h.01c6.58,1.37,12.68,2.37,18.01,2.86,16.41,1.5,27.94-.35,35.67-2.85h0"/>
  <path class="cls-1" d="M114.11,3.29c6.12-1.5,15.07-2.79,27.73-2.79,6.71,0,15.75,1.07,25.94,2.79h.01c35.79,6.01,85.55,19.99,96.94,23.62,12.5,3.99,67.77,24.62,106.44,32.64h0c6.58,1.36,12.67,2.36,17.99,2.85,16.41,1.51,27.94-.35,35.67-2.86h.01"/>
  <path class="cls-1" d="M167.78,3.29h.01c6.12-1.5,15.07-2.79,27.72-2.79,6.72,0,15.76,1.07,25.95,2.79h.01c35.78,6.01,85.54,19.99,96.94,23.62,12.5,3.99,67.75,24.62,106.43,32.63h.01c6.58,1.37,12.68,2.37,18,2.86,16.41,1.51,27.94-.35,35.67-2.86"/>
  <path class="cls-1" d="M221.46,3.29h.01c6.12-1.5,15.07-2.79,27.72-2.79,6.71,0,15.76,1.07,25.95,2.79h.01"/>
  <line class="cls-1" x1="532.21" y1="59.54" x2="532.2" y2="59.54"/>
  <path class="cls-1" d="M275.15,3.29h-.01"/>
  <path class="cls-1" d="M585.88,59.54h-.01c-7.72,2.51-19.26,4.37-35.66,2.86-5.32-.49-11.42-1.49-18-2.86h-.01"/>
  <path class="cls-1" d="M532.2,59.54c-7.73,2.51-19.26,4.37-35.67,2.86-5.32-.49-11.42-1.49-18-2.86h-.01c-38.68-8.01-93.93-28.64-106.44-32.63-11.39-3.63-61.15-17.61-96.93-23.62,6.13-1.5,15.07-2.79,27.72-2.79,6.71,0,15.76,1.07,25.94,2.79h.01c35.78,6.01,85.55,19.99,96.94,23.62,12.5,3.99,67.76,24.62,106.44,32.63Z"/>
  <path class="cls-1" d="M328.82,3.29c6.12-1.5,15.07-2.79,27.73-2.79,6.71,0,15.75,1.07,25.94,2.79h.01c35.78,6.01,85.54,19.99,96.94,23.62,12.5,3.99,67.76,24.62,106.43,32.63h.01c6.58,1.37,12.68,2.37,18,2.86,16.4,1.5,27.93-.35,35.66-2.86h.01"/>
  <path class="cls-1" d="M382.49,3.29h.01c6.12-1.5,15.07-2.79,27.72-2.79,6.71,0,15.76,1.07,25.95,2.79h0c35.78,6.01,85.54,19.99,96.94,23.62,12.5,3.99,67.75,24.62,106.42,32.63h.01c6.58,1.37,12.68,2.37,18.01,2.86,16.4,1.5,27.93-.35,35.66-2.86h.01"/>
  <path class="cls-1" d="M746.91,59.54c-7.73,2.51-19.26,4.36-35.67,2.86-5.33-.49-11.43-1.49-18.01-2.86h-.01c-38.67-8.01-93.92-28.64-106.43-32.63-11.39-3.63-61.15-17.61-96.94-23.62-10.19-1.72-19.24-2.79-25.95-2.79-12.65,0-21.6,1.29-27.72,2.79h0"/>
  <path class="cls-1" d="M800.59,59.54h0c-7.72,2.51-19.26,4.37-35.66,2.86-5.33-.49-11.43-1.49-18.01-2.86-38.67-8.01-93.94-28.64-106.44-32.63-11.39-3.63-61.15-17.61-96.94-23.62-10.19-1.72-19.24-2.79-25.95-2.79-12.66,0-21.6,1.29-27.73,2.79"/>
  <path class="cls-1" d="M543.53,3.29c6.12-1.5,15.07-2.79,27.73-2.79,30.3,0,108.25,21.75,122.89,26.41,12.5,3.99,67.76,24.62,106.43,32.63h0"/>
</svg>