<?xml version="1.0" encoding="UTF-8"?>
<svg id="_레이어_1" data-name="레이어 1" xmlns="http://www.w3.org/2000/svg" viewBox="0 0 500 500">
  <defs>
    <style>
      .cls-1 {
        stroke-width: .26px;
      }

      .cls-1, .cls-2, .cls-3, .cls-4, .cls-5 {
        stroke-miterlimit: 10;
      }

      .cls-1, .cls-2, .cls-3, .cls-4, .cls-5, .cls-6 {
        fill: none;
        stroke: #040000;
        stroke-linecap: round;
      }

      .cls-2, .cls-6 {
        stroke-width: .51px;
      }

      .cls-3 {
        stroke-width: 1.03px;
      }

      .cls-4, .cls-5 {
        stroke-width: .15px;
      }

      .cls-4, .cls-7 {
        opacity: .5;
      }

      .cls-6 {
        stroke-linejoin: round;
      }
    </style>
  </defs>
  <line class="cls-4" x1="184.2" y1="219.52" x2="451.85" y2="146.39"/>
  <g>
    <line class="cls-1" x1="398.1" y1="78.46" x2="454.36" y2="178.81"/>
    <line class="cls-1" x1="454.36" y1="293.36" x2="284.41" y2="453.15"/>
    <line class="cls-1" x1="454.36" y1="286.98" x2="284.41" y2="423.57"/>
    <line class="cls-1" x1="45.64" y1="205.1" x2="174.02" y2="157.15"/>
    <line class="cls-1" x1="398.1" y1="223.47" x2="159.71" y2="157.15"/>
    <line class="cls-1" x1="45.64" y1="296.55" x2="183.08" y2="339.18"/>
    <line class="cls-1" x1="305.86" y1="423.57" x2="45.64" y2="308.73"/>
    <line class="cls-1" x1="305.86" y1="453.15" x2="45.64" y2="320.91"/>
    <line class="cls-1" x1="296.02" y1="206.66" x2="454.36" y2="239.33"/>
    <line class="cls-1" x1="313.03" y1="207.81" x2="45.64" y2="243.77"/>
    <line class="cls-1" x1="45.64" y1="294.04" x2="320.51" y2="369.05"/>
    <line class="cls-1" x1="299.78" y1="369.05" x2="454.36" y2="278.18"/>
    <line class="cls-1" x1="424.2" y1="87.16" x2="45.64" y2="222.99"/>
    <line class="cls-1" x1="183.08" y1="252.21" x2="45.64" y2="254.98"/>
    <line class="cls-1" x1="159.71" y1="252.21" x2="454.36" y2="257.36"/>
    <line class="cls-1" x1="166.67" y1="339.18" x2="454.36" y2="266.39"/>
  </g>
  <g class="cls-7">
    <line class="cls-5" x1="398.1" y1="75.33" x2="454.36" y2="175.67"/>
    <line class="cls-5" x1="454.36" y1="290.22" x2="284.41" y2="450.02"/>
    <line class="cls-5" x1="454.36" y1="283.84" x2="284.41" y2="420.44"/>
    <line class="cls-5" x1="45.64" y1="201.96" x2="174.02" y2="154.02"/>
    <line class="cls-5" x1="398.1" y1="220.33" x2="159.71" y2="154.02"/>
    <line class="cls-5" x1="45.64" y1="293.41" x2="183.08" y2="336.04"/>
    <line class="cls-5" x1="305.86" y1="420.44" x2="45.64" y2="305.59"/>
    <line class="cls-5" x1="305.86" y1="450.02" x2="45.64" y2="317.77"/>
    <line class="cls-5" x1="296.02" y1="203.52" x2="454.36" y2="236.19"/>
    <line class="cls-5" x1="313.03" y1="204.67" x2="45.64" y2="240.63"/>
    <line class="cls-5" x1="45.64" y1="290.9" x2="320.51" y2="365.91"/>
    <line class="cls-5" x1="299.78" y1="365.91" x2="454.36" y2="275.05"/>
    <line class="cls-5" x1="424.2" y1="84.03" x2="45.64" y2="219.86"/>
    <line class="cls-5" x1="183.08" y1="249.07" x2="45.64" y2="251.85"/>
    <line class="cls-5" x1="159.71" y1="249.07" x2="454.36" y2="254.22"/>
    <line class="cls-5" x1="166.67" y1="336.04" x2="454.36" y2="263.25"/>
  </g>
  <g class="cls-7">
    <line class="cls-5" x1="398.1" y1="80.87" x2="454.36" y2="181.21"/>
    <line class="cls-5" x1="454.36" y1="295.76" x2="284.41" y2="455.55"/>
    <line class="cls-5" x1="454.36" y1="289.38" x2="284.41" y2="425.97"/>
    <line class="cls-5" x1="45.64" y1="207.5" x2="174.02" y2="159.56"/>
    <line class="cls-5" x1="398.1" y1="225.87" x2="159.71" y2="159.56"/>
    <line class="cls-5" x1="45.64" y1="298.95" x2="183.08" y2="341.58"/>
    <line class="cls-5" x1="305.86" y1="425.97" x2="45.64" y2="311.13"/>
    <line class="cls-5" x1="305.86" y1="455.55" x2="45.64" y2="323.31"/>
    <line class="cls-5" x1="296.02" y1="209.06" x2="454.36" y2="241.73"/>
    <line class="cls-5" x1="313.03" y1="210.21" x2="45.64" y2="246.17"/>
    <line class="cls-5" x1="45.64" y1="296.44" x2="320.51" y2="371.45"/>
    <line class="cls-5" x1="299.78" y1="371.45" x2="454.36" y2="280.58"/>
    <line class="cls-5" x1="424.2" y1="89.57" x2="45.64" y2="225.4"/>
    <line class="cls-5" x1="183.08" y1="254.61" x2="45.64" y2="257.38"/>
    <line class="cls-5" x1="159.71" y1="254.61" x2="454.36" y2="259.76"/>
    <line class="cls-5" x1="166.67" y1="341.58" x2="454.36" y2="268.79"/>
  </g>
  <g>
    <polygon class="cls-1" points="50.16 203.7 50.16 323.22 53.94 325.11 53.94 202.29 50.16 203.7"/>
    <polyline class="cls-1" points="53.94 202.29 58.06 203.17 58.06 323.88 53.94 325.11"/>
  </g>
  <polygon class="cls-1" points="175.75 336.88 175.75 161.62 184.2 163.96 184.2 334.74 175.75 336.88"/>
  <polygon class="cls-1" points="175.75 161.62 167.64 164.11 167.64 334.38 175.75 336.88 175.75 161.62"/>
  <polygon class="cls-1" points="215.4 221.56 215.4 340.36 221.53 342.04 221.53 220.76 215.4 221.56"/>
  <polyline class="cls-1" points="221.53 220.76 227.77 221.73 227.77 339.79 221.53 342.04"/>
  <polygon class="cls-1" points="306.36 365.19 306.36 208.77 297.66 209.87 297.66 362.81 306.36 365.19"/>
  <polygon class="cls-1" points="306.36 208.77 314.25 210.42 314.25 360.55 306.36 365.19 306.36 208.77"/>
  <polygon class="cls-2" points="406.53 93.5 406.53 338.33 411.24 333.9 411.24 101.91 406.53 93.5"/>
  <polygon class="cls-2" points="406.53 93.5 399.16 96.15 399.16 337.32 406.53 338.33 406.53 93.5"/>
  <polygon class="cls-1" points="447.16 165.96 447.16 300.13 444.33 302.78 444.33 160.93 447.16 165.96"/>
  <polyline class="cls-1" points="444.33 160.93 439.91 162.42 439.91 302.78 444.33 302.78"/>
  <g>
    <polygon class="cls-1" points="271.55 141.94 271.55 319.75 277.92 320.91 277.92 139.65 271.55 141.94"/>
    <polygon class="cls-1" points="277.92 139.65 284.41 143.14 284.41 317.86 277.92 320.91 277.92 139.65"/>
  </g>
  <line class="cls-1" x1="412.71" y1="339.18" x2="45.64" y2="288.66"/>
  <polyline class="cls-2" points="439.91 328.74 379.05 322.45 379.05 223.7"/>
  <line class="cls-2" x1="371.43" y1="120.75" x2="303.34" y2="143.37"/>
  <line class="cls-2" x1="307.63" y1="138.73" x2="307.63" y2="208.77"/>
  <polyline class="cls-2" points="307.63 141.94 321.55 148.01 368.15 133.51"/>
  <line class="cls-2" x1="321.55" y1="148.01" x2="321.55" y2="211.12"/>
  <polyline class="cls-2" points="326.48 212.93 326.48 151.49 368.15 138.73"/>
  <polyline class="cls-2" points="326.48 151.49 329.96 153.52 368.15 141.92"/>
  <line class="cls-2" x1="329.96" y1="153.52" x2="329.96" y2="213.66"/>
  <line class="cls-2" x1="351.93" y1="143.7" x2="351.93" y2="218.18"/>
  <polyline class="cls-6" points="355.11 218.84 355.11 142.73 357.69 145.1 357.69 219.37"/>
  <polygon class="cls-2" points="417.62 144.01 417.62 208.77 435.7 217.96 435.7 167.79 417.62 144.01"/>
  <polyline class="cls-2" points="435.7 167.79 430.58 167.79 417.62 154.25"/>
  <line class="cls-2" x1="430.58" y1="167.79" x2="430.58" y2="215.19"/>
  <polyline class="cls-2" points="428.84 214.47 428.84 168.95 417.62 157.15"/>
  <polyline class="cls-2" points="428.84 168.95 427.44 168.95 417.62 159.52"/>
  <line class="cls-2" x1="427.44" y1="168.95" x2="427.44" y2="213.76"/>
  <polyline class="cls-2" points="289.54 360.93 289.54 230.28 232.59 236.23 232.59 345.05 247.19 339.18 247.19 234.7"/>
  <line class="cls-2" x1="247.19" y1="339.18" x2="289.54" y2="350.1"/>
  <polygon class="cls-2" points="266.24 245.12 251.93 246.28 251.93 272.82 266.24 272.82 266.24 245.12"/>
  <polygon class="cls-2" points="269.33 245.12 269.33 272.82 286.93 272.82 286.93 243.77 269.33 245.12"/>
  <polygon class="cls-2" points="251.93 276.25 266.24 276.25 266.24 301.77 251.93 300.8 251.93 276.25"/>
  <polygon class="cls-2" points="269.33 276.25 269.33 301.77 286.93 302.78 286.93 276.63 269.33 276.25"/>
  <polygon class="cls-2" points="323.18 230.28 323.18 255.07 372.88 255.93 372.88 236.52 323.18 230.28"/>
  <line class="cls-2" x1="367.31" y1="255.84" x2="367.31" y2="235.82"/>
  <line class="cls-2" x1="346.3" y1="233.18" x2="346.3" y2="255.47"/>
  <line class="cls-2" x1="350.37" y1="233.69" x2="350.37" y2="255.47"/>
  <line class="cls-2" x1="343.38" y1="233.18" x2="343.38" y2="255.43"/>
  <polygon class="cls-2" points="417.62 242.03 417.62 256.72 435.7 257.03 435.7 244.58 417.62 242.03"/>
  <line class="cls-2" x1="432.93" y1="244.19" x2="432.93" y2="256.98"/>
  <line class="cls-2" x1="426.66" y1="243.3" x2="426.66" y2="256.87"/>
  <line class="cls-2" x1="424.2" y1="243.11" x2="424.2" y2="256.83"/>
  <line class="cls-2" x1="422.65" y1="242.74" x2="422.65" y2="256.8"/>
  <polyline class="cls-3" points="50.16 200.85 50.16 310.72 292.01 417.46 406.53 325.29 379.05 322.45 306.36 365.19 306.36 208.77 189.71 224.39 189.71 333.35"/>
  <line class="cls-3" x1="406.53" y1="87.16" x2="406.53" y2="229.46"/>
  <polyline class="cls-3" points="167.91 159.43 167.91 252.52 175.75 252.52 175.75 336.88 189.71 333.35 232.59 345.05"/>
  <polyline class="cls-3" points="88.04 309.7 58.06 313.92 58.06 254.98 87.47 254.14 88.04 309.7 175.75 336.88"/>
  <polyline class="cls-3" points="50.16 310.72 50.16 323.22 291.94 446.07 291.94 417.46"/>
  <ellipse class="cls-2" cx="148.21" cy="427.35" rx="25.81" ry="9.89"/>
  <path class="cls-2" d="M129.81,397.09c0,2.73-5.78,4.95-12.91,4.95s-12.91-2.21-12.91-4.95,5.78-4.95,12.91-4.95,12.91,2.21,12.91,4.95Z"/>
  <ellipse class="cls-2" cx="417.62" cy="373.26" rx="12.91" ry="4.95"/>
  <path class="cls-2" d="M407.26,397.09c0,2.73-5.78,4.95-12.91,4.95s-12.91-2.21-12.91-4.95,5.78-4.95,12.91-4.95,12.91,2.21,12.91,4.95Z"/>
  <ellipse class="cls-2" cx="367.31" cy="427.35" rx="12.91" ry="4.95"/>
  <polyline class="cls-3" points="291.94 446.07 447.16 300.13 447.16 165.96 406.53 93.5 271.55 141.94 271.55 188.26 167.91 159.43 50.16 203.7"/>
  <line class="cls-3" x1="271.55" y1="188.26" x2="271.55" y2="213.4"/>
  <line class="cls-3" x1="406.53" y1="325.29" x2="406.53" y2="229.46"/>
  <polyline class="cls-3" points="306.36 208.77 378.64 223.7 379.05 322.45"/>
  <polygon class="cls-2" points="190.65 181.64 190.65 208.77 263.34 222.99 263.34 200.33 190.65 181.64"/>
  <polyline class="cls-2" points="263.34 200.33 257.48 201.81 257.78 221.9"/>
  <line class="cls-2" x1="257.48" y1="201.81" x2="190.65" y2="185.19"/>
  <polyline class="cls-2" points="255.47 221.45 255.47 203.07 190.65 187.12"/>
  <polyline class="cls-2" points="255.47 203.07 253.87 203.07 253.87 221.14"/>
  <line class="cls-2" x1="240.37" y1="199.35" x2="240.37" y2="218.5"/>
  <line class="cls-2" x1="238.11" y1="198.8" x2="238.11" y2="217.88"/>
  <line class="cls-2" x1="236.56" y1="198.8" x2="236.56" y2="217.82"/>
  <line class="cls-2" x1="215.4" y1="193.5" x2="215.4" y2="213.61"/>
  <line class="cls-2" x1="212.3" y1="213.01" x2="212.3" y2="192.45"/>
  <line class="cls-2" x1="210.48" y1="192" x2="210.48" y2="212.57"/>
  <line class="cls-3" x1="167.91" y1="252.52" x2="87.47" y2="254.14"/>
  <line class="cls-2" x1="146.56" y1="186.78" x2="146.56" y2="230.19"/>
  <line class="cls-2" x1="114.36" y1="198.34" x2="114.36" y2="234.53"/>
  <line class="cls-2" x1="94.81" y1="205.35" x2="94.81" y2="237.16"/>
  <line class="cls-2" x1="68.84" y1="214.67" x2="68.84" y2="241.45"/>
  <polyline class="cls-2" points="68.84 214.67 72.71 215.2 72.71 240.13"/>
  <line class="cls-2" x1="72.71" y1="215.2" x2="94.81" y2="208.1"/>
  <polyline class="cls-2" points="114.36 198.34 119.59 198.96 119.59 233.71"/>
  <line class="cls-2" x1="119.59" y1="198.96" x2="146.56" y2="189.68"/>
  <polyline class="cls-2" points="121.24 233.6 121.24 199.98 146.56 191.47"/>
  <line class="cls-2" x1="135.64" y1="195.14" x2="135.64" y2="231.66"/>
  <polyline class="cls-2" points="137.73 231.38 137.73 194.44 139.22 195.14 139.22 231.18"/>
  <polyline class="cls-2" points="121.24 199.98 122.4 200.46 122.4 233.44"/>
  <line class="cls-2" x1="122.4" y1="200.46" x2="135.64" y2="196.21"/>
  <line class="cls-2" x1="139.22" y1="195.14" x2="146.56" y2="192.63"/>
  <polyline class="cls-2" points="74.08 239.94 74.08 216.02 94.81 209.84"/>
  <line class="cls-2" x1="84.44" y1="212.93" x2="84.44" y2="238.55"/>
  <polyline class="cls-2" points="85.82 238.36 85.82 212.52 86.82 212.93 86.82 238.23"/>
  <polyline class="cls-2" points="74.08 216.02 75.01 216.36 75.01 239.82"/>
  <line class="cls-2" x1="75.01" y1="216.36" x2="84.44" y2="213.61"/>
  <line class="cls-2" x1="86.82" y1="212.93" x2="94.81" y2="210.56"/>
  <line class="cls-5" x1="53.94" y1="168.95" x2="53.94" y2="363.01"/>
  <line class="cls-5" x1="167.64" y1="132.65" x2="167.64" y2="422.12"/>
  <line class="cls-5" x1="175.75" y1="135.85" x2="175.75" y2="430.53"/>
  <line class="cls-5" x1="271.21" y1="129.75" x2="271.21" y2="458.32"/>
  <line class="cls-5" x1="406.53" y1="71.91" x2="406.53" y2="368.55"/>
  <line class="cls-5" x1="221.53" y1="109.7" x2="221.53" y2="356.42"/>
  <line class="cls-5" x1="447.16" y1="138.21" x2="447.16" y2="329.53"/>
  <line class="cls-5" x1="306.64" y1="185.74" x2="306.64" y2="377.06"/>
  <line class="cls-5" x1="45.64" y1="191.49" x2="422.65" y2="41.68"/>
  <line class="cls-5" x1="454.36" y1="160.93" x2="385.82" y2="41.68"/>
  <line class="cls-2" x1="368.15" y1="118.87" x2="368.15" y2="221.29"/>
  <polygon class="cls-2" points="95.52 259.76 167.64 259.76 167.64 305.59 95.52 295.53 95.52 259.76"/>
  <polyline class="cls-2" points="100.09 259.76 100.09 294.81 95.52 295.53"/>
  <line class="cls-2" x1="100.09" y1="294.81" x2="167.64" y2="303.7"/>
  <polyline class="cls-2" points="102.29 259.76 102.29 293.41 167.64 301.04"/>
  <line class="cls-2" x1="131.58" y1="259.76" x2="131.58" y2="296.83"/>
  <line class="cls-2" x1="136.99" y1="297.23" x2="136.99" y2="259.76"/>
  <line class="cls-2" x1="134.96" y1="259.76" x2="134.96" y2="297.23"/>
  <polyline class="cls-2" points="102.29 293.41 103.93 293.41 103.93 259.76"/>
</svg>